<?xml version="1.0" standalone="no"?>
<!DOCTYPE svg PUBLIC "-//W3C//DTD SVG 1.1//EN" "http://www.w3.org/Graphics/SVG/1.1/DTD/svg11.dtd" >
<svg xmlns="http://www.w3.org/2000/svg">
<metadata>
<json>
<![CDATA[
{
	"fontFamily": "icomoon",
	"majorVersion": 1,
	"minorVersion": 0,
	"version": "Version 1.0",
	"fontId": "icomoon",
	"psName": "icomoon",
	"subFamily": "Regular",
	"fullName": "icomoon",
	"description": "Font generated by IcoMoon."
}
]]>
</json>
</metadata>
<defs>
<font id="icomoon" horiz-adv-x="1024">
<font-face units-per-em="1024" ascent="960" descent="-64" />
<missing-glyph horiz-adv-x="1024" />
<glyph unicode="&#x20;" horiz-adv-x="512" d="" />
<glyph unicode="&#xe900;" glyph-name="1" data-tags="1" d="M430.4-38.272c0-16.512-13.44-29.888-30.016-29.888h-280.128c-16.576 0-30.016 13.376-30.016 29.888v0c0 16.64 13.44 30.144 30.016 30.144h280.128c16.576 0 30.016-13.504 30.016-30.144v0zM905.024-38.272c0-16.512-13.504-29.888-30.016-29.888h-280.128c-16.64 0-30.080 13.376-30.080 29.888v0c0 16.64 13.44 30.144 30.080 30.144h280.128c16.512 0 30.016-13.504 30.016-30.144v0zM460.608 940.736c16.64 16.64 40.32 19.968 52.864 7.424v0c12.48-12.544 9.28-36.224-7.488-52.864l-445.568-445.568c-16.64-16.64-40.256-19.968-52.8-7.488v0c-12.544 12.544-9.28 36.224 7.424 52.864l445.568 445.632zM478.976 895.296c-16.704 16.64-20.032 40.32-7.488 52.864v0c12.48 12.544 36.224 9.216 52.864-7.424l445.632-445.568c16.768-16.64 20.032-40.32 7.488-52.864v0c-12.48-12.48-36.224-9.216-52.864 7.488l-445.632 445.504zM1024 866.048c0-16.768-13.632-30.4-30.4-30.4h-224.128c-16.896 0-30.528 13.632-30.528 30.4v0c0 16.768 13.632 30.4 30.528 30.4h224.128c16.768 0 30.4-13.632 30.4-30.4v0zM1024 661.888c0-16.32-13.248-29.504-29.504-29.504v0c-16.384 0-29.504 13.184-29.504 29.504v205.056c0 16.32 13.12 29.504 29.504 29.504v0c16.256 0 29.504-13.184 29.504-29.504v-205.056zM151.488-37.504c0-16.896-13.76-30.656-30.656-30.656v0c-16.896 0-30.656 13.76-30.656 30.656v482.112c0 16.896 13.76 30.656 30.656 30.656v0c16.896 0 30.656-13.696 30.656-30.656v-482.112zM905.024-37.504c0-16.896-13.76-30.656-30.656-30.656v0c-16.896 0-30.656 13.76-30.656 30.656v482.112c0 16.896 13.76 30.656 30.656 30.656v0c16.896 0 30.656-13.696 30.656-30.656v-482.112zM430.4-37.504c0-16.896-13.76-30.656-30.656-30.656v0c-16.896 0-30.656 13.76-30.656 30.656v308.736c0 17.024 13.76 30.656 30.656 30.656v0c16.896 0 30.656-13.632 30.656-30.656v-308.736zM626.112-37.504c0-16.896-13.76-30.656-30.656-30.656v0c-17.024 0-30.656 13.76-30.656 30.656v308.736c0 17.024 13.696 30.656 30.656 30.656v0c16.896 0 30.656-13.632 30.656-30.656v-308.736zM626.112 267.968c0-18.624-15.232-33.728-33.856-33.728h-189.248c-18.752 0-33.856 15.104-33.856 33.728v0c0 18.752 15.104 33.856 33.856 33.856h189.248c18.624 0.064 33.856-15.104 33.856-33.856v0z" />
<glyph unicode="&#xe901;" glyph-name="2" data-tags="2" d="M931.52 908.16h-839.040c-31.488 0-56.96-23.808-56.96-53.12v-577.92c0-29.44 25.472-53.248 56.96-53.248h838.976c31.488 0 56.96 23.808 56.96 53.248v577.92c0 29.312-25.408 53.12-56.896 53.12zM915.84 331.456c0-23.808-21.632-43.2-48.32-43.2h-711.040c-26.688 0-48.256 19.392-48.256 43.2v469.184c0 23.872 21.568 43.2 48.256 43.2h710.976c26.688 0 48.32-19.328 48.32-43.2v-469.184zM547.968 31.424c0-17.536-16.064-31.744-35.904-31.744v0c-19.84 0-36.032 14.208-36.032 31.744v208.256c0 17.6 16.128 31.68 35.968 31.68v0c19.84 0 35.904-14.144 35.904-31.68v-208.256zM755.008 20.096c0-17.792-14.464-32.256-32.256-32.256h-421.504c-17.792 0-32.256 14.464-32.256 32.256v0c0 17.792 14.464 32.32 32.256 32.32h421.504c17.792 0 32.256-14.464 32.256-32.32v0z" />
<glyph unicode="&#xe902;" glyph-name="3" data-tags="3" d="M974.016 370.56h-924.032c-27.456 0-49.6-19.392-49.6-43.136l37.696-352.96c4.672-31.296 10.944-40.576 31.808-42.688h880.448c25.984 0 28.096 12.8 32.704 35.84l40.768 359.808c-0.064 23.744-22.4 43.136-49.792 43.136zM923.328-4.544h-820.608l-35.776 311.424h890.112l-33.728-311.424zM680.32 134.656c0-17.28-13.888-31.104-31.040-31.104h-274.432c-17.152 0-31.104 13.888-31.104 31.104v0c0 17.152 14.016 31.040 31.104 31.040h274.368c17.216 0 31.104-13.952 31.104-31.040v0zM172.608 929.024c3.52 17.92 20.736 29.632 38.656 26.176v0c17.92-3.456 29.632-20.8 26.048-38.72l-88.384-455.68c-3.584-17.92-20.864-29.568-38.784-26.112v0c-17.92 3.456-29.696 20.864-26.176 38.784l88.64 455.552zM875.2 460.736c3.52-17.92 20.864-29.568 38.784-26.112v0c17.92 3.456 29.632 20.864 26.112 38.784l-88.64 455.616c-3.52 17.92-20.8 29.632-38.72 26.176v0c-17.856-3.52-29.632-20.864-26.176-38.784l88.64-455.68zM851.264 924.672c0-17.152-13.888-31.040-30.912-31.040h-616.256c-17.216 0-30.976 13.952-30.976 31.040v0c0 17.152 13.824 31.104 30.976 31.104h616.192c17.088 0 30.976-13.952 30.976-31.104v0zM679.616 744.128c0-17.088-13.824-30.848-30.912-30.848h-273.216c-17.152 0-30.976 13.824-30.976 30.848v0c0 17.088 13.888 30.848 30.976 30.848h273.216c17.088 0 30.912-13.76 30.912-30.848v0zM728.96 607.552c0-17.984-14.656-32.64-32.64-32.64h-368.576c-17.984 0-32.64 14.656-32.64 32.64v0c0 17.984 14.656 32.576 32.64 32.576h368.576c17.984 0 32.64-14.592 32.64-32.576v0z" />
<glyph unicode="&#xe903;" glyph-name="4" data-tags="4" d="M1016.64 700.928l-485.504 247.232c-10.24 10.176-26.624 10.176-36.864 0l-486.656-247.296c-10.24-10.176-10.24-26.752 0-36.928l486.656-266.944c10.24-10.176 26.624-10.24 36.864 0l485.504 267.072c10.112 10.176 10.112 26.688 0 36.864zM512.128 456.192l-411.392 225.408 411.776 207.36 410.88-208.384-411.264-224.384zM1016.512 465.472l-112.192 57.216-64.512-35.2 83.456-42.304-411.264-224.448-411.392 225.408 83.584 42.112-63.424 34.688-113.28-57.536c-10.24-10.176-10.24-26.752 0-36.928l486.656-266.944c10.24-10.112 26.624-10.112 36.864 0l485.504 267.136c10.112 10.112 10.112 26.624 0 36.8zM1016.64 243.392l-112.192 57.152-64.512-35.136 83.456-42.368-411.264-224.32-411.392 225.344 83.584 41.984-63.424 34.752-113.28-57.6c-10.24-10.24-10.24-26.624 0-36.736l486.656-267.008c10.24-10.112 26.624-10.368 36.864 0l485.504 267.008c10.112 10.304 10.112 26.816 0 36.928z" />
<glyph unicode="&#xe904;" glyph-name="5" data-tags="5" d="M129.088 902.976c16.256 0 29.376-9.728 29.376-21.696v-686.656c0-12.096-13.184-21.888-29.376-21.888v0c-16.256 0-29.44 9.728-29.44 21.888v686.656c0 11.968 13.12 21.696 29.44 21.696v0zM337.92 702.976c0-24.64-19.968-44.608-44.544-44.608v0c-24.64 0-44.608 19.968-44.608 44.608v0c0 24.64 19.968 44.608 44.608 44.608v0c24.64 0 44.544-19.968 44.544-44.608v0zM774.72 702.976c0-15.168-10.432-27.456-23.36-27.456h-351.232c-12.864 0-23.296 12.288-23.296 27.456v0c0 15.168 10.432 27.456 23.296 27.456h351.232c12.928 0 23.36-12.288 23.36-27.456v0zM337.92 537.92c0-24.64-19.968-44.608-44.544-44.608v0c-24.64 0-44.608 19.968-44.608 44.608v0c0 24.64 19.968 44.544 44.608 44.544v0c24.64 0 44.544-19.904 44.544-44.544v0zM774.72 537.92c0-15.168-10.432-27.456-23.36-27.456h-351.232c-12.864 0-23.296 12.224-23.296 27.456v0c0 15.168 10.432 27.456 23.296 27.456h351.232c12.928-0.064 23.36-12.288 23.36-27.456v0zM337.92 372.864c0-24.64-19.968-44.608-44.544-44.608v0c-24.64 0-44.608 20.032-44.608 44.608v0c0 24.512 19.968 44.48 44.608 44.48v0c24.64 0 44.544-19.968 44.544-44.48v0zM56.32 872.832h808.64v-450.432c20.544-3.776 40.256-10.048 58.88-18.368v468.8h43.328c15.936 0 28.8 13.184 28.8 29.44s-12.864 29.44-28.8 29.44h-910.848c-15.936 0-28.8-13.184-28.8-29.44s12.928-29.44 28.8-29.44zM552.192 162.88c0 13.632 1.088 27.008 3.072 40h-498.944c-15.936 0-28.8-13.12-28.8-29.376s12.928-29.376 28.8-29.376h496.64c-0.448 6.144-0.768 12.352-0.768 18.752zM700.544 400.192h-300.416c-12.864 0-23.296-12.224-23.296-27.328 0-15.232 10.432-27.52 23.296-27.52h225.408c21.504 22.4 46.848 41.152 75.008 54.848zM977.92 197.376c-6.656 1.472-13.824 2.752-21.44 4.032-1.472 3.904-3.072 7.616-4.736 11.392 4.544 6.4 8.768 12.352 12.352 18.112 5.888 9.152 4.672 21.12-2.944 28.736l-37.632 37.632c-4.416 4.352-10.304 6.72-16.32 6.72-4.288 0-8.704-1.28-12.48-3.776-5.696-3.776-11.712-7.744-18.112-12.352-3.712 1.728-7.488 3.264-11.328 4.736-1.28 7.616-2.624 14.848-4.032 21.504-2.24 10.624-11.712 18.24-22.592 18.24h-53.12c-10.752 0-20.16-7.616-22.464-18.24-1.408-6.656-2.816-13.888-4.032-21.504-3.968-1.472-7.744-3.008-11.456-4.736-6.4 4.608-12.416 8.64-18.048 12.352-3.84 2.496-8.256 3.776-12.48 3.776-5.952 0-11.904-2.368-16.256-6.72l-37.632-37.632c-7.616-7.616-8.96-19.648-3.008-28.736 3.712-5.76 7.808-11.776 12.416-18.112-1.792-3.776-3.328-7.488-4.736-11.392-7.744-1.28-14.912-2.496-21.632-4.032-10.56-2.24-18.112-11.648-18.112-22.528v-53.12c0-10.88 7.552-20.224 18.112-22.528 6.656-1.344 13.888-2.752 21.632-4.032 1.408-3.904 2.944-7.744 4.736-11.52-4.608-6.272-8.768-12.224-12.416-17.984-5.952-9.152-4.608-21.12 3.008-28.736l37.632-37.632c4.352-4.48 10.304-6.72 16.256-6.72 4.224 0 8.704 1.28 12.48 3.648 5.632 3.776 11.712 7.872 18.048 12.48 3.712-1.728 7.488-3.264 11.456-4.736 1.216-7.744 2.56-14.848 4.032-21.632 2.24-10.496 11.712-18.112 22.464-18.112h53.12c10.88 0 20.288 7.616 22.592 18.112 1.344 6.72 2.752 13.888 4.032 21.632 3.904 1.472 7.68 3.008 11.456 4.736 6.272-4.48 12.16-8.64 17.92-12.352 3.84-2.496 8.256-3.776 12.544-3.776 6.016 0 11.904 2.24 16.32 6.72l37.632 37.632c7.616 7.616 8.832 19.776 2.944 28.864-3.776 5.632-7.872 11.648-12.352 17.856 1.664 3.776 3.264 7.616 4.736 11.52 7.616 1.28 14.72 2.624 21.44 4.032 10.624 2.24 18.24 11.648 18.24 22.528v53.12c0 10.88-7.616 20.288-18.24 22.528zM812.224 33.344c-63.552 0-115.008 51.392-115.008 114.88 0 63.616 51.456 115.136 115.008 115.136 63.488 0 114.944-51.52 114.944-115.136 0-63.488-51.392-114.88-114.944-114.88z" />
<glyph unicode="&#xe905;" glyph-name="20" data-tags="20" d="M645.916 439.812l-267.847 248.667v-497.335l267.848 248.668z" />
<glyph unicode="&#xe906;" glyph-name="21" data-tags="21" d="M511.993 305.889l248.668 267.847h-497.336l248.67-267.847z" />
<glyph unicode="&#xe907;" glyph-name="22" data-tags="22" d="M511.993 573.736l-248.668-267.846h497.335l-248.667 267.846z" />
<glyph unicode="&#xe908;" glyph-name="23" data-tags="23" d="M378.069 439.813l267.847-248.668v497.335l-267.847-248.667z" />
<glyph unicode="&#xe909;" glyph-name="24" data-tags="24" d="M696.848 76.405c21.897 11.357 30.452 38.315 19.091 60.207l-165.56 319.292 165.56 319.287c11.357 21.894 2.803 48.856-19.087 60.207-21.897 11.357-48.855 2.806-60.211-19.091l-176-339.426c-3.406-6.572-5.020-13.599-5.020-20.522 0-0.151 0.004-0.304 0.007-0.455-0.003-0.152-0.007-0.304-0.007-0.456 0-6.923 1.615-13.95 5.020-20.521l176-339.431c11.357-21.897 38.311-30.443 60.207-19.091v0zM390.057 209.342c0-24.030-19.481-43.511-43.511-43.511v0c-24.030 0-43.511 19.481-43.511 43.511v493.121c0 24.030 19.481 43.511 43.511 43.511v0c24.030 0 43.511-19.481 43.511-43.511v-493.121z" />
<glyph unicode="&#xe90a;" glyph-name="25" data-tags="25" d="M327.15 835.399c-21.896-11.356-30.451-38.314-19.091-60.207l165.559-319.292-165.56-319.286c-11.356-21.894-2.803-48.856 19.087-60.207 21.896-11.357 48.854-2.807 60.211 19.090l176.001 339.426c3.405 6.571 5.021 13.599 5.021 20.522 0 0.151-0.004 0.304-0.008 0.455 0.004 0.152 0.008 0.304 0.008 0.457 0 6.922-1.615 13.949-5.021 20.521l-176 339.432c-11.357 21.896-38.311 30.443-60.207 19.089v0zM633.941 702.462c0 24.030 19.481 43.512 43.512 43.512v0c24.030 0 43.511-19.481 43.511-43.512v-493.12c0-24.030-19.48-43.512-43.511-43.512v0c-24.030 0-43.512 19.481-43.512 43.512v493.12z" />
<glyph unicode="&#xe90b;" glyph-name="26" data-tags="26" d="M962.418 53.163l-267.221 267.662c50.133 61.596 80.256 140.217 80.256 225.906 0 197.589-159.872 357.717-357.12 357.717-197.22 0-357.148-160.142-357.148-357.717s159.929-357.703 357.148-357.703c85.973 0 164.836 30.45 226.475 81.138l267.136-267.577 50.475 50.574zM418.332 260.537c-157.81 0-285.696 128.156-285.696 286.194 0 158.066 127.9 286.18 285.696 286.18 157.781 0 285.71-128.114 285.71-286.18 0-158.037-127.929-286.194-285.71-286.194z" />
<glyph unicode="&#xe90c;" glyph-name="27" data-tags="27" d="M104.88 224.16l537.743 537.92 179.248-179.328-537.743-537.936-179.248 179.344zM821.84 941.392c24.8 24.8 64.912 24.8 89.664 0l89.615-89.664c24.688-24.768 24.688-64.912 0-89.664l-134.431-134.448-179.264 179.296 134.416 134.48zM0-59.664l59.664 239.008 179.328-179.408-238.992-59.6z" />
<glyph unicode="&#xe90d;" glyph-name="28" data-tags="28" d="M62.875 800.26c0 29.219 25.035 52.881 55.942 52.881h279.72v52.949c-0.001 29.19 25.034 52.887 55.943 52.887h111.886c30.909 0 55.944-23.697 55.944-52.886v-52.948h279.718c30.909 0 55.944-23.663 55.944-52.881v-52.947h-895.098v52.945zM902.030 641.512v-652.595c0-29.22-25.034-52.918-55.94-52.918l-671.33 0.001c-30.908 0-55.945 23.696-55.945 52.918l0.001 546.764v158.748h783.214v-52.916zM342.593 535.681c0 29.223-25.036 52.918-55.945 52.918-30.907 0-55.941-23.694-55.941-52.918v-440.932c0-29.251 25.036-52.915 55.941-52.915 30.909 0 55.945 23.662 55.945 52.915v440.932zM566.368 535.681c0 29.223-25.037 52.918-55.945 52.918-30.909 0-55.945-23.694-55.945-52.918v-440.932c0-29.251 25.033-52.915 55.945-52.915 30.907 0 55.945 23.662 55.945 52.915v440.932zM790.143 535.681c0 29.223-25.035 52.918-55.944 52.918-30.905 0-55.943-23.694-55.943-52.918v-440.932c0-29.251 25.037-52.915 55.943-52.915 30.909 0 55.944 23.662 55.944 52.915v440.932z" />
<glyph unicode="&#xe90e;" glyph-name="29" data-tags="29" d="M66.708 449.178c0-245.843 199.295-445.138 445.138-445.138s445.138 199.295 445.138 445.138c0 245.843-199.295 445.138-445.138 445.138s-445.138-199.295-445.138-445.138z" />
<glyph unicode="&#xe90f;" glyph-name="30" data-tags="30" d="M852.736 260.096v280.128c0 143.040-107.008 263.232-251.072 296.896v20.224c0 46.848-40.256 85.056-89.728 85.056s-89.728-38.144-89.728-85.056v-20.16c-144.064-33.728-251.072-153.92-251.072-296.96v-282.304l-33.216-98.688v-5.824c0-29.376 24.704-53.312 55.040-53.312h637.312c30.656 0 55.68 24.192 55.68 53.824v5.824l-33.216 100.352zM493.376 857.344c0 6.528 7.68 13.76 18.56 13.76 10.944 0 18.56-7.232 18.56-13.76v-10.944c-3.52 0.128-6.912 0.448-10.432 0.448h-16.192c-3.52 0-6.912-0.32-10.368-0.448l-0.128 10.944zM217.152 171.392l25.216 74.944v293.888c0 129.792 117.312 235.392 261.44 235.392h16.192c144.192 0 261.44-105.536 261.44-235.392v-291.648l25.536-77.248-589.824 0.064zM521.92 24.96c-33.92 0-61.504 17.408-61.504 52.928h-71.232c0-71.168 59.52-124.224 132.736-124.224s132.736 53.056 132.736 124.224h-71.168c-0.128-35.52-27.648-52.928-61.568-52.928v0z" />
<glyph unicode="&#xe910;" glyph-name="31" data-tags="31" d="M608.704-35.008h-193.536c-182.144 0-326.016 0-326.016 92.544v19.072c0 177.088 146.24 321.088 326.016 321.088h193.472c179.84 0 326.144-144 326.144-321.088v-19.072c-0.064-92.544-151.168-92.544-326.080-92.544v0zM502.272 422.080c-142.4 0-258.24 114.24-258.24 254.464 0 140.288 115.84 254.464 258.24 254.464s258.24-114.112 258.24-254.464c0-140.224-115.84-254.464-258.24-254.464v0z" />
<glyph unicode="&#xe911;" glyph-name="32" data-tags="32" d="M781.568 329.088c-99.968 0-180.8-81.088-180.8-180.864 0-99.968 81.088-180.8 180.8-180.8 99.84 0 180.864 81.088 180.864 180.8 0 99.776-81.088 180.864-180.864 180.864zM897.984 181.504c-45.184-44.352-74.752-74.56-111.68-112.896-0.704-4.608-4.672-7.488-8.064-10.816-4.608-4.608-10.496-10.816-17.536-14.464-9.344-6.912-14.848-5.632-20.608-0.896-4.224 1.728-8.832 5.056-13.504 9.92-23.232 24.576-43.2 41.536-68.672 68.672-21.312 22.208-10.112 32 1.152 43.264 21.568 21.44 32.32 8.512 44.032-3.2 21.632-21.632 30.592-30.464 43.712-43.584 44.48 45.312 59.2 62.72 108.544 111.488 23.36 23.040 34.112 11.264 41.28 4.16 10.432-10.496 25.664-27.84 1.344-51.648zM470.848 424.512c141.12 0 255.808 113.088 255.808 252.032 0 139.008-114.688 252.032-255.808 252.032-141.056 0-255.808-113.088-255.808-252.032 0-138.88 114.752-252.032 255.808-252.032zM560.96 148.16c0 103.68 71.36 190.784 167.872 214.336-45.504 24.064-97.344 37.76-152.576 37.76h-191.68c-178.176 0-323.008-142.72-323.008-318.080v-18.944c0-91.712 142.592-91.712 323.008-91.712h191.68c24.832 0 49.216 0 72.64 0.32-53.44 40.192-87.936 104.256-87.936 176.32z" />
<glyph unicode="&#xe912;" glyph-name="33" data-tags="33" d="M810.048 24.768h-52.928v105.792h-105.728v105.792h-105.92v52.928h-105.728v75.2c-32.512-14.144-68.16-22.272-105.856-22.272-146.112 0-264.512 118.464-264.512 264.512 0 146.112 118.464 264.512 264.512 264.512s264.512-118.4 264.512-264.512c0-37.632-8.192-73.344-22.336-105.792h75.264v-105.792l264.512-211.648v-158.72h-105.792zM281.024 765.44c-58.432 0-105.792-47.424-105.792-105.792s47.36-105.792 105.792-105.792c58.432 0 105.792 47.424 105.792 105.792s-47.424 105.792-105.792 105.792v0z" />
<glyph unicode="&#xe913;" glyph-name="34" data-tags="34" d="M518.272 851.904c-233.28 0-422.336-189.12-422.336-422.336 0-233.344 189.12-422.464 422.336-422.464 233.28 0 422.272 189.12 422.272 422.464 0 233.216-188.992 422.336-422.272 422.336v0zM566.4 260.608c-16.768-6.656-24-4.48-33.984-8s-21.568-5.12-34.752-5.12c-20.288 0-36.096 4.992-47.36 14.72-11.264 9.984-23.488 22.528-23.488 37.76 0 0.768-1.6 29.504 7.872 49.152l29.056 68.032c1.856 7.104 3.456 13.824 4.736 20.224 1.28 6.336 1.92 6.976 1.92 12.288 0 9.472-6.016 16.064-9.92 19.84-3.904 3.712-20.48 5.568-31.552 5.568-5.376 0-10.944-0.832-16.704-2.56-5.632-1.728-11.776-3.264-15.872-4.8l1.536 27.904c13.696 5.568 41.344 13.44 53.824 17.408s24.448 5.952 35.584 5.952c20.16 0 40.768-4.864 51.712-14.656 10.88-9.728 24.448-25.408 24.448-40.96 0-3.2-0.384-8.896-1.152-17.024s-2.176-15.552-4.16-22.4l-34.048-67.712c-1.664-5.824-3.2-12.736-4.544-20.224-1.344-7.616-1.984-23.488-1.984-27.392 0-9.728 2.176-16.512 6.592-20.032 4.352-3.648 8.96-9.472 19.776-9.472 14.656 0 13.76-2.368 28.16 4.352l-5.696-22.848zM566.016 565.504c-9.088-8.448-20.096-14.592-32.896-14.592-12.864 0-23.872 6.144-33.024 14.592-9.216 8.512-13.824 19.712-13.824 31.808 0 12.032 4.608 23.232 13.824 31.808s20.16 13.76 33.024 13.76c12.8 0 23.808-4.224 32.896-12.8s13.632-20.736 13.632-32.768c0.064-12.096-4.544-23.296-13.632-31.808v0z" />
<glyph unicode="&#xe914;" glyph-name="35" data-tags="35" d="M783.36 709.76c-27.456 24.384-69.312 22.016-93.696-5.312-24.448-27.392-22.144-69.312 5.312-93.696 56.576-50.688 91.968-123.456 91.968-205.12-0.256-151.872-123.072-274.816-274.88-274.944-151.808 0.128-274.688 123.072-274.944 274.944 0 82.048 35.776 155.2 92.8 205.824 27.456 24.32 29.952 66.304 5.632 93.696s-66.176 30.016-93.632 5.568v0c-84.16-74.432-137.536-183.872-137.536-305.088 0.064-225.344 182.528-407.616 407.68-407.744 225.216 0.128 407.552 182.464 407.552 407.744 0.128 120.768-52.864 229.76-136.256 304.128v0zM513.152 338.24c36.736 0 66.368 29.76 66.368 66.368v427.136c0 36.672-29.632 66.368-66.368 66.368-36.608 0-66.304-29.696-66.304-66.368v-427.264c0-36.48 29.696-66.24 66.304-66.24v0z" />
<glyph unicode="&#xe915;" glyph-name="36" data-tags="36" d="M511.872 888c-243.008 0-440-197.056-440-440 0-243.008 196.992-440 440-440s440 196.928 440 440c0 242.944-196.992 440-440 440v0zM566.464 175.488l-100.992-0.256-0.64 222.080-222.208-0.64-0.256 100.928 222.144 0.64-0.64 222.144 100.992 0.32 0.64-222.144 222.144 0.64 0.384-100.992-222.208-0.576 0.64-222.144z" />
<glyph unicode="&#xe916;" glyph-name="37" data-tags="37" d="M512 926.784c-264.448 0-478.784-214.4-478.784-478.784 0-264.32 214.336-478.848 478.784-478.848s478.784 214.528 478.784 478.848c0 264.384-214.336 478.784-478.784 478.784zM808.896 393.92h-593.792v108.096h593.728v-108.096z" />
<glyph unicode="&#xe917;" glyph-name="40" data-tags="40" d="M728.128 198.272c0 0-97.216 23.232-97.216 124.736 0 89.024 39.936 120.448 55.296 142.080 0 0 31.68 27.712 10.432 117.248 35.392 49.024 46.848 128.896 3.584 227.456-24.128 57.536-45.376 89.152-77.824 107.52-23.744 13.44-50.752 18.432-77.12 18.432-48.96 0-95.36-17.344-113.92-29.44-54.208-24.384-90.624-46.784-124.864-132.224-29.632-71.744 5.632-149.568 22.976-188.736-21.12-89.472 8.192-120.256 8.192-120.256 15.488-21.632 55.296-53.056 55.296-142.080 0-101.504-97.088-124.736-97.088-124.736-61.632-22.144-190.336-64.64-190.336-210.88 0 0 0-27.136 27.072-27.136h758.656c27.136 0 27.136 27.136 27.136 27.136 0.064 146.24-128.704 188.736-190.272 210.88zM178.88 28.224c11.904 71.616 166.592 119.616 166.592 119.616 45.824 12.096 116.416 78.528 116.416 183.488 0 88.896-45.12 131.392-64.448 154.688-3.904 4.8-8.512 10.88-7.488 9.536-1.6 3.392-9.152 23.36 1.856 69.888 5.184 21.76-3.584 33.664-3.584 33.664-13.952 31.296-39.744 89.536-20.352 136.576 26.048 65.088 49.088 77.952 90.944 96.768 2.432 1.088 4.8 2.368 7.040 3.84 7.936 5.12 41.408 19.392 79.296 19.392 18.88 0 34.816-3.648 47.424-10.816 15.104-8.512 29.696-24.832 51.648-77.184 41.024-93.312 14.976-145.472 1.92-163.648-8.64-11.968-11.648-27.136-8.192-41.472 10.112-42.752 3.52-60.8 1.792-64.384-0.448-0.512-6.592-8.256-9.6-12.032-19.392-23.424-55.488-66.816-55.488-155.776 0-104.896 50.432-170.368 96.192-182.528 0 0 149.056-48 160.96-119.616h-652.928z" />
<glyph unicode="&#xe918;" glyph-name="41" data-tags="41" d="M690.304 241.984c0 0-80.192 19.136-80.192 102.848 0 73.472 32.96 99.328 45.632 117.248 0 0 26.112 22.848 8.64 96.704 29.184 40.448 38.656 106.368 2.944 187.712-19.904 47.552-37.44 73.6-64.192 88.704-19.648 11.136-41.984 15.296-63.68 15.296-40.384 0-78.656-14.336-94.016-24.32-44.736-20.16-74.752-38.656-102.976-109.12-24.448-59.2 4.672-123.456 18.944-155.712-17.472-73.792 6.72-99.2 6.72-99.2 12.736-17.92 45.632-43.776 45.632-117.248 0-83.776-80.064-102.848-80.064-102.848-50.816-18.304-157.056-53.44-157.056-174.144 0 0 0-22.4 22.4-22.4h625.92c22.4 0 22.4 22.4 22.4 22.4-0.064 120.704-106.176 155.84-157.056 174.080zM237.12 101.632c9.792 59.264 137.472 98.752 137.472 98.752 37.824 9.984 96.064 64.768 96.064 151.36 0 73.408-37.248 108.416-53.184 127.744-3.2 3.904-7.040 8.896-6.208 7.808-1.344 2.816-7.616 19.264 1.472 57.6 4.224 17.984-2.944 27.84-2.944 27.84-11.52 25.792-32.832 73.856-16.768 112.64 21.44 53.696 40.512 64.32 75.008 79.808 2.048 0.896 3.968 1.984 5.76 3.136 6.592 4.288 34.176 16 65.408 16 15.616 0 28.736-2.944 39.168-8.896 12.48-7.040 24.512-20.48 42.56-63.68 33.792-76.992 12.352-120.064 1.6-135.040-7.104-9.856-9.6-22.4-6.784-34.304 8.32-35.264 2.944-50.176 1.536-53.12-0.192-0.32-5.248-6.656-7.872-9.792-15.936-19.328-45.696-55.104-45.696-128.512 0-86.656 41.536-140.608 79.36-150.656 0 0 123.008-39.488 132.8-98.752h-538.752zM885.312 266.88c0 0-61.568 14.72-61.568 78.976 0 56.384 25.28 76.224 35.008 89.984 0 0 20.096 17.536 6.656 74.24 22.4 30.976 29.632 81.6 2.24 144-15.296 36.48-28.736 56.448-49.28 68.032-15.104 8.512-32.256 11.712-48.896 11.712-9.088 0-17.856-0.96-26.24-2.496 3.392-15.616 8.448-32.96 13.44-48.192 11.968-0.064 22.016-2.368 30.016-6.848 9.536-5.44 18.752-15.744 32.64-48.896 25.92-59.072 9.536-92.096 1.28-103.616-5.504-7.552-7.296-17.216-5.184-26.304 6.464-27.072 2.24-38.528 1.152-40.768-0.256-0.32-4.096-5.248-6.080-7.616-12.224-14.784-35.072-42.24-35.072-98.56 0-66.496 31.872-107.904 60.8-115.648 0 0 94.464-30.4 102.016-75.904h-58.432l34.816-43.008h74.048c17.152 0 17.152 17.152 17.152 17.152 0 92.864-81.536 119.744-120.512 133.76zM138.688 266.88c0 0 61.504 14.72 61.504 78.976 0 56.384-25.28 76.224-35.008 89.984 0 0-20.032 17.536-6.656 74.24-22.4 30.976-29.632 81.6-2.24 144 15.296 36.48 28.8 56.448 49.28 68.032 15.040 8.512 32.192 11.712 48.832 11.712 9.024 0 17.92-0.96 26.24-2.496-3.264-15.616-8.384-32.96-13.44-48.192-11.904 0-21.952-2.304-29.888-6.784-9.6-5.44-18.752-15.744-32.64-48.896-25.92-59.072-9.536-92.096-1.28-103.616 5.504-7.552 7.36-17.216 5.248-26.304-6.4-27.072-2.304-38.528-1.216-40.768 0.32-0.32 4.16-5.248 6.144-7.616 12.224-14.784 35.072-42.24 35.072-98.56 0-66.496-31.936-107.904-60.928-115.648 0 0-94.4-30.4-101.888-75.904h58.304l-34.752-43.008h-74.048c-17.152 0-17.152 17.152-17.152 17.152 0 92.8 81.472 119.68 120.512 133.696z" />
<glyph unicode="&#xe919;" glyph-name="42" data-tags="42" d="M924.672 929.664h-825.344c-48.064 0-87.040-38.976-87.040-87.040v-183.68c0-48.064 38.976-87.040 87.040-87.040h825.344c48.128 0 87.104 38.976 87.104 87.040v183.68c0.064 48.064-38.976 87.040-87.104 87.040zM936.448 683.968c0-24-19.52-43.52-43.52-43.52h-761.792c-24 0-43.52 19.52-43.52 43.52v133.632c0 24 19.52 43.52 43.52 43.52h761.792c24 0 43.52-19.52 43.52-43.52v-133.632zM924.672 626.944h-825.344c-48.064 0-87.040-38.976-87.040-87.040v-183.616c0-48.128 38.976-87.104 87.040-87.104h825.344c48.128 0 87.104 38.976 87.104 87.104v183.616c0.064 48.064-38.976 87.040-87.104 87.040zM936.448 381.248c0-24.128-19.52-43.648-43.52-43.648h-761.792c-24 0-43.52 19.52-43.52 43.648v133.632c0 24 19.52 43.52 43.52 43.52h761.792c24 0 43.52-19.456 43.52-43.52v-133.632zM924.672 324.096h-825.344c-48.064 0-87.040-38.848-87.040-86.976v-183.616c0-48.128 38.976-87.104 87.040-87.104h825.344c48.128 0 87.104 38.976 87.104 87.104v183.616c0.064 48.128-38.976 86.976-87.104 86.976zM275.328 34.88h-144.192c-24 0-43.52 19.52-43.52 43.648v133.632c0 24 19.52 43.52 43.52 43.52h761.792c24 0 43.52-19.52 43.52-43.52v-133.632c0-24.128-19.52-43.648-43.52-43.648h-617.6zM192.128 813.952c-34.88 0-63.168-28.288-63.168-63.168s28.288-63.168 63.168-63.168c34.88 0 63.168 28.288 63.168 63.168s-28.288 63.168-63.168 63.168zM192.128 727.488c-12.864 0-23.296 10.432-23.296 23.296s10.432 23.296 23.296 23.296c12.864 0 23.296-10.432 23.296-23.296s-10.432-23.296-23.296-23.296zM192.128 512.384c-34.88 0-63.168-28.288-63.168-63.168s28.288-63.168 63.168-63.168c34.88 0 63.168 28.224 63.168 63.168 0 34.816-28.288 63.168-63.168 63.168zM192.128 425.92c-12.864 0-23.296 10.432-23.296 23.296s10.432 23.296 23.296 23.296c12.864 0 23.296-10.432 23.296-23.296 0-12.928-10.432-23.296-23.296-23.296zM192.128 210.752c-34.88 0-63.168-28.224-63.168-63.104s28.288-63.232 63.168-63.232c34.88 0 63.168 28.352 63.168 63.232s-28.288 63.104-63.168 63.104zM192.128 124.352c-12.864 0-23.296 10.368-23.296 23.232s10.432 23.232 23.296 23.232c12.864 0 23.296-10.368 23.296-23.232s-10.432-23.232-23.296-23.232z" />
<glyph unicode="&#xe91a;" glyph-name="43" data-tags="43" d="M512.896 960c-283.264 0-512.896-229.632-512.896-512.896 0-283.2 229.632-512.896 512.896-512.896 283.328 0 512.96 229.696 512.96 512.896-0.064 283.264-229.696 512.896-512.96 512.896v0zM512.896 63.488c-211.84 0-383.552 171.84-383.552 383.616 0 211.84 171.776 383.552 383.552 383.552 211.904 0 383.552-171.712 383.552-383.552 0-211.776-171.712-383.616-383.552-383.616v0zM748.224 511.232h-171.072v233.344c0 12.8-10.496 23.232-23.36 23.232h-81.728c-12.864 0-23.296-10.432-23.296-23.232v-338.24c0-12.864 9.472-23.296 21.12-23.296h278.4c11.776 0 21.184 10.432 21.184 23.296v81.664c-0.064 12.864-9.472 23.232-21.248 23.232v0z" />
<glyph unicode="&#xe91b;" glyph-name="adr" data-tags="adr" d="M529.92 925.184c-189.632 0-343.36-157.312-343.36-351.232 0-193.984 343.36-585.216 343.36-585.216s343.424 391.232 343.424 585.216c0 193.984-153.856 351.232-343.424 351.232v0 0zM529.92 427.584c-94.784 0-171.712 78.656-171.712 175.68s76.864 175.616 171.712 175.616c94.784 0 171.712-78.656 171.712-175.616s-76.928-175.68-171.712-175.68v0 0z" />
<glyph unicode="&#xe91c;" glyph-name="arrow" data-tags="arrow" d="M676.224 214.72v-175.104l309.376 280.064-309.376 261.248v-148.8h-289.216v-217.344h289.216zM314.24 372.352v131.648h290.112v217.344h-290.112v135.040l-275.84-247.040 275.84-236.992z" />
<glyph unicode="&#xe91d;" glyph-name="audiooff" data-tags="audiooff" d="M516.032 625.088l77.248-112.512c1.984 7.616 3.2 15.744 3.2 24-0.064 47.552-35.712 86.272-80.448 88.512zM237.888 137.984v-132.864h452.352l-91.136 132.864h-2.688v4.032l-139.84 203.904c-77.76 24.96-134.4 100.928-134.4 190.656 0 1.728 0.064 3.456 0.128 5.12l-109.248 159.296c-24.512-49.088-38.464-105.024-38.464-164.416 0-2.816 0-5.696 0.128-8.512 0-0.896 0-1.792 0.128-2.688 0.064-1.92 0.128-3.904 0.192-5.76 0.064-1.088 0.128-2.112 0.192-3.2 0-1.728 0.128-3.52 0.192-5.312 0.128-1.088 0.192-2.112 0.256-3.136 0.128-1.92 0.32-3.712 0.448-5.504 0.064-1.024 0.192-1.92 0.256-2.944 0.256-2.176 0.512-4.352 0.768-6.528 0.064-0.576 0.128-1.216 0.192-1.792 0.32-2.688 0.64-5.44 1.024-8.192 0.128-0.704 0.32-1.408 0.384-2.176 0.32-1.92 0.64-4.032 0.96-5.952 0.192-1.024 0.32-1.984 0.512-2.944 0.256-1.792 0.64-3.52 0.96-5.248 0.192-1.088 0.384-2.048 0.576-3.072 0.384-1.728 0.704-3.52 1.152-5.184 0.192-0.96 0.384-1.984 0.64-2.88 0.32-1.856 0.768-3.712 1.28-5.632 0.192-0.768 0.384-1.536 0.512-2.368 0.64-2.624 1.344-5.248 2.048-7.872 0.064-0.384 0.192-0.768 0.32-1.152 0.576-2.176 1.28-4.352 1.856-6.592 0.256-0.832 0.512-1.728 0.832-2.624 0.448-1.728 0.96-3.392 1.536-5.184 0.32-0.96 0.64-1.92 0.96-2.88 0.512-1.6 1.088-3.2 1.6-4.864 0.384-0.96 0.704-1.792 1.024-2.816 0.512-1.664 1.152-3.328 1.792-4.992 0.32-0.896 0.576-1.792 1.024-2.56 0.768-2.112 1.536-4.288 2.432-6.4 0.128-0.384 0.256-0.704 0.384-1.024 1.024-2.496 2.048-4.992 3.072-7.36 0.32-0.768 0.64-1.472 0.96-2.24 0.768-1.728 1.472-3.392 2.176-5.12 0.512-0.96 0.896-1.728 1.344-2.688 0.704-1.472 1.408-3.072 2.112-4.48 0.448-0.96 0.96-1.856 1.344-2.816 0.768-1.472 1.472-3.072 2.24-4.416 0.448-0.96 0.896-1.728 1.344-2.624 0.896-1.664 1.792-3.456 2.688-5.056 0.384-0.704 0.704-1.28 1.088-1.856 1.28-2.368 2.496-4.608 3.776-6.784 0.384-0.576 0.704-1.088 1.024-1.6 1.088-1.664 1.984-3.456 3.072-5.12 0.448-0.96 0.896-1.664 1.408-2.56 0.896-1.344 1.728-2.816 2.688-4.224 0.576-0.832 1.088-1.728 1.664-2.496 0.832-1.408 1.728-2.816 2.752-4.16 0.512-0.896 1.152-1.6 1.6-2.432 1.024-1.472 1.984-2.88 3.008-4.352 0.512-0.64 1.024-1.344 1.472-2.048 1.472-2.112 3.008-4.16 4.48-6.272 0.064-0.064 0.192-0.128 0.256-0.256 1.408-1.984 3.008-3.968 4.544-5.888 0.512-0.768 1.024-1.344 1.6-2.048 1.024-1.344 2.112-2.688 3.2-4.032 0.704-0.768 1.28-1.472 1.856-2.24 1.088-1.344 2.112-2.496 3.2-3.712 0.64-0.896 1.344-1.536 1.92-2.368 1.152-1.216 2.176-2.432 3.328-3.712 0.64-0.704 1.28-1.344 1.92-2.112 1.28-1.344 2.624-2.88 4.032-4.288 0.384-0.448 0.832-0.832 1.216-1.28 1.792-1.856 3.584-3.712 5.376-5.568 0.512-0.576 1.088-1.088 1.6-1.536 1.344-1.28 2.56-2.496 3.968-3.84 0.64-0.64 1.344-1.344 2.048-1.984 1.216-1.152 2.368-2.176 3.584-3.328 0.768-0.704 1.472-1.344 2.24-2.048 1.216-1.088 2.368-2.112 3.648-3.264 0.704-0.576 1.472-1.216 2.176-1.792 1.344-1.28 2.688-2.368 4.032-3.456 0.576-0.576 1.28-1.088 1.792-1.536 1.984-1.6 3.968-3.264 5.952-4.8 0.384-0.256 0.768-0.576 1.152-0.832 1.664-1.344 3.328-2.56 4.992-3.904 0.768-0.512 1.408-1.024 2.112-1.6 1.344-0.96 2.752-1.984 4.032-2.88 0.896-0.64 1.6-1.152 2.496-1.728 1.28-0.96 2.56-1.792 3.968-2.752 0.832-0.576 1.6-1.088 2.432-1.6 1.408-1.024 2.752-1.792 4.16-2.752 0.832-0.512 1.472-1.024 2.24-1.472 1.856-1.152 3.712-2.24 5.504-3.392 0.384-0.256 0.768-0.448 1.088-0.64 2.176-1.344 4.352-2.56 6.592-3.968 0.704-0.384 1.408-0.768 2.112-1.152 1.536-0.96 3.072-1.664 4.608-2.624 0.832-0.448 1.664-0.896 2.56-1.28 1.408-0.896 2.816-1.536 4.288-2.304 0.896-0.512 1.728-0.896 2.624-1.344 1.472-0.832 2.944-1.472 4.416-2.112 0.896-0.448 1.728-0.96 2.56-1.344 1.664-0.768 3.392-1.6 5.12-2.304 0.64-0.32 1.28-0.576 1.92-0.96 2.304-1.024 4.608-2.048 6.976-2.944 0.576-0.256 1.216-0.448 1.728-0.704 1.792-0.832 3.584-1.408 5.44-2.24 0.832-0.384 1.728-0.64 2.56-1.024 1.536-0.512 3.136-1.152 4.736-1.664 0.896-0.384 1.856-0.64 2.816-1.024 1.472-0.576 3.072-1.088 4.608-1.536 0.96-0.256 1.856-0.704 2.752-1.024 1.664-0.512 3.392-1.024 5.056-1.536 0.832-0.192 1.536-0.512 2.432-0.704 2.432-0.704 4.864-1.472 7.424-2.112v-55.424h-189.568zM448.064 724.224c19.968 7.552 41.536 11.648 63.936 11.648 104.896 0 189.824-89.28 189.824-199.296 0-46.528-15.168-89.28-40.64-123.136l88.256-128.64c0.32 0.32 0.704 0.704 1.088 1.152s0.768 0.768 1.216 1.216c1.344 1.472 2.688 3.008 4.032 4.352 0.64 0.768 1.216 1.344 1.792 1.984 1.152 1.344 2.304 2.624 3.456 3.84 0.576 0.832 1.28 1.472 1.792 2.304 1.152 1.216 2.176 2.432 3.264 3.776 0.576 0.768 1.28 1.472 1.856 2.24 1.152 1.344 2.176 2.688 3.328 4.096 0.512 0.64 1.024 1.28 1.536 1.984 1.472 1.92 3.136 4.032 4.672 6.080 0 0 0 0 0 0.064 1.536 2.048 3.136 4.096 4.544 6.272 0.512 0.704 1.024 1.344 1.408 2.048 1.088 1.472 2.048 2.88 3.072 4.352 0.576 0.832 1.088 1.536 1.664 2.432 0.896 1.344 1.728 2.752 2.688 4.16 0.512 0.768 1.152 1.6 1.6 2.432 0.896 1.408 1.792 2.944 2.752 4.224 0.448 0.896 0.96 1.6 1.408 2.496 1.024 1.664 2.048 3.456 3.136 5.184 0.32 0.576 0.576 1.024 0.896 1.472 1.344 2.24 2.56 4.48 3.904 6.848 0.32 0.64 0.64 1.216 0.96 1.856 0.96 1.6 1.792 3.392 2.752 5.056 0.448 0.832 0.896 1.664 1.344 2.624 0.704 1.344 1.408 2.944 2.24 4.416 0.448 0.96 0.896 1.856 1.28 2.816 0.832 1.408 1.472 3.008 2.176 4.48 0.448 0.96 0.896 1.728 1.28 2.688 0.832 1.664 1.472 3.328 2.24 5.12 0.384 0.704 0.704 1.408 1.024 2.24 1.024 2.368 2.048 4.864 3.008 7.36 0.128 0.32 0.32 0.64 0.512 1.024 0.832 2.112 1.6 4.288 2.432 6.4 0.32 0.768 0.576 1.664 0.96 2.56 0.64 1.6 1.216 3.328 1.728 4.992 0.384 0.96 0.768 1.856 1.088 2.816 0.512 1.6 1.088 3.264 1.6 4.864 0.32 0.96 0.64 1.92 0.96 2.88 0.512 1.728 1.088 3.456 1.536 5.184 0.32 0.832 0.576 1.664 0.832 2.56 0.704 2.24 1.344 4.48 1.856 6.72 0.064 0.32 0.192 0.704 0.384 1.088 0.704 2.624 1.344 5.248 1.984 7.872 0.192 0.832 0.384 1.6 0.576 2.368 0.448 1.856 0.832 3.776 1.344 5.632 0.256 0.896 0.384 1.92 0.64 2.88 0.384 1.664 0.704 3.392 1.024 5.184 0.192 0.96 0.448 1.984 0.64 3.008 0.384 1.792 0.704 3.52 0.96 5.248 0.192 0.96 0.384 1.92 0.512 2.944 0.384 1.92 0.768 3.968 1.024 5.952 0.064 0.768 0.192 1.472 0.32 2.176 0.384 2.688 0.832 5.504 1.152 8.256 0.064 0.512 0.128 1.088 0.192 1.728 0.256 2.176 0.512 4.352 0.704 6.528 0.128 0.96 0.192 1.92 0.256 2.88 0.192 1.792 0.32 3.648 0.512 5.504 0.064 1.024 0.192 2.048 0.256 3.136 0.064 1.792 0.256 3.584 0.32 5.312 0.064 1.088 0.064 2.112 0.128 3.2 0.064 1.856 0.128 3.84 0.192 5.76 0 0.896 0.064 1.792 0.064 2.688 0.128 2.816 0.128 5.696 0.128 8.512 0 195.712-151.040 354.304-337.408 354.304-54.656 0-106.432-13.696-152.128-38.016l87.936-128.384zM455.808 868.736h112.448c15.552 0 28.16-9.92 28.16-22.144s-12.608-22.144-28.16-22.144h-112.448c-15.616 0-28.096 9.92-28.096 22.144s12.48 22.144 28.096 22.144zM866.24 13.76c8.768-12.736 2.368-32.448-14.4-43.968l-16.384-11.2c-16.64-11.52-37.376-10.304-46.272 2.496l-631.424 921.088c-8.768 12.864-2.368 32.576 14.336 44.032l16.32 11.2c16.704 11.52 37.376 10.368 46.208-2.496l631.616-921.152z" />
<glyph unicode="&#xe91e;" glyph-name="audioon" data-tags="audioon" d="M512 947.968c-210.432 0-380.992-179.072-380.992-400 0-3.264 0-6.464 0.128-9.664 0-1.024 0.064-1.984 0.064-3.008 0.064-2.176 0.128-4.352 0.256-6.464 0.064-1.216 0.064-2.368 0.192-3.52 0.128-2.112 0.192-4.096 0.384-6.080 0.064-1.216 0.128-2.368 0.256-3.584 0.128-2.112 0.32-4.16 0.512-6.208 0.064-1.088 0.192-2.176 0.32-3.328 0.192-2.432 0.448-4.864 0.768-7.296 0.064-0.704 0.128-1.344 0.192-2.048 0.384-3.072 0.832-6.144 1.28-9.216 0.064-0.896 0.256-1.664 0.384-2.496 0.32-2.304 0.704-4.48 1.088-6.784 0.192-1.088 0.384-2.24 0.576-3.328 0.32-1.984 0.64-3.904 1.024-5.824 0.256-1.216 0.448-2.368 0.704-3.52 0.384-1.92 0.768-3.904 1.216-5.824 0.192-1.088 0.448-2.176 0.704-3.264 0.448-2.112 0.96-4.224 1.472-6.336 0.192-0.832 0.384-1.728 0.64-2.688 0.704-2.944 1.472-5.952 2.24-8.832 0.128-0.448 0.256-0.896 0.384-1.344 0.64-2.56 1.344-4.992 2.112-7.488 0.256-1.024 0.576-1.92 0.896-3.008 0.576-1.856 1.216-3.84 1.792-5.76 0.32-1.088 0.704-2.112 1.088-3.264 0.576-1.792 1.216-3.584 1.792-5.44 0.384-1.088 0.768-2.176 1.152-3.2 0.64-1.856 1.344-3.776 2.048-5.696 0.384-0.96 0.704-1.92 1.088-2.816 0.896-2.432 1.792-4.864 2.752-7.232 0.128-0.384 0.32-0.832 0.448-1.216 1.152-2.752 2.304-5.568 3.456-8.32 0.384-0.832 0.768-1.6 1.152-2.496 0.832-1.856 1.664-3.84 2.496-5.696 0.448-1.024 0.96-2.048 1.408-3.008 0.768-1.728 1.6-3.456 2.432-5.12 0.512-1.088 1.024-2.112 1.536-3.2 0.832-1.664 1.664-3.328 2.56-5.056 0.512-0.896 1.024-1.92 1.472-2.88 1.024-1.92 2.048-3.84 3.072-5.76 0.384-0.704 0.704-1.408 1.152-2.112 1.408-2.56 2.88-5.12 4.352-7.68 0.32-0.64 0.704-1.28 1.088-1.792 1.152-1.984 2.304-3.968 3.456-5.888 0.576-0.896 1.152-1.728 1.664-2.688 1.024-1.6 2.048-3.264 3.008-4.8 0.64-1.024 1.28-1.92 1.856-2.88 1.024-1.536 2.048-3.136 3.072-4.672 0.64-0.896 1.28-1.856 1.856-2.752 1.088-1.6 2.24-3.264 3.328-4.864 0.576-0.832 1.152-1.536 1.664-2.368 1.664-2.368 3.392-4.736 5.12-6.976 0.064-0.128 0.128-0.256 0.256-0.32 1.664-2.24 3.392-4.48 5.12-6.656 0.576-0.768 1.216-1.472 1.792-2.304 1.28-1.536 2.496-3.008 3.712-4.544 0.704-0.896 1.408-1.664 2.176-2.56 1.152-1.408 2.304-2.816 3.52-4.224 0.704-0.832 1.472-1.664 2.24-2.56 1.28-1.408 2.496-2.752 3.712-4.16 0.704-0.768 1.408-1.536 2.112-2.368 1.472-1.6 3.008-3.328 4.544-4.864 0.448-0.448 0.96-1.024 1.408-1.472 1.984-2.048 4.032-4.096 6.016-6.208 0.576-0.576 1.216-1.216 1.792-1.728 1.472-1.408 2.944-2.88 4.416-4.288 0.768-0.832 1.536-1.536 2.368-2.24 1.344-1.344 2.688-2.56 4.032-3.776 0.896-0.832 1.664-1.472 2.56-2.304 1.344-1.216 2.688-2.432 4.096-3.648 0.832-0.768 1.664-1.408 2.496-2.112 1.536-1.344 3.008-2.624 4.544-3.904 0.704-0.64 1.344-1.28 2.112-1.792 2.24-1.792 4.416-3.584 6.656-5.312 0.448-0.384 0.832-0.64 1.28-1.024 1.856-1.472 3.776-2.944 5.632-4.288 0.832-0.64 1.664-1.216 2.496-1.856 1.472-1.088 3.008-2.176 4.544-3.264 0.896-0.704 1.792-1.344 2.752-1.92 1.472-1.088 2.944-2.048 4.416-3.136 0.96-0.64 1.856-1.28 2.816-1.856 1.536-1.088 3.136-2.112 4.736-3.136 0.896-0.512 1.728-1.088 2.56-1.6 2.048-1.344 4.16-2.624 6.208-3.904 0.384-0.256 0.768-0.512 1.152-0.704 2.432-1.472 4.928-2.944 7.424-4.352 0.832-0.448 1.6-0.896 2.432-1.344 1.664-0.96 3.456-1.92 5.184-2.816 0.96-0.576 1.92-1.088 2.88-1.6 1.6-0.896 3.2-1.6 4.864-2.496 1.024-0.512 2.048-1.024 3.008-1.536 1.664-0.768 3.328-1.536 4.992-2.368 0.96-0.512 1.92-0.96 2.88-1.408 1.92-0.896 3.84-1.728 5.696-2.624 0.704-0.32 1.472-0.704 2.24-0.96 2.624-1.216 5.312-2.368 7.936-3.456 0.64-0.32 1.344-0.576 1.984-0.832 1.984-0.832 4.032-1.6 6.144-2.432 0.96-0.384 1.984-0.768 2.944-1.152 1.728-0.64 3.52-1.344 5.248-1.92 1.088-0.448 2.112-0.768 3.2-1.216 1.728-0.64 3.456-1.216 5.248-1.728 1.024-0.32 2.112-0.704 3.136-1.024 1.856-0.64 3.776-1.216 5.632-1.792 0.96-0.256 1.856-0.576 2.752-0.832 2.752-0.896 5.568-1.664 8.384-2.432v-62.528h-214.208v-150.080h619.072v150.080h-214.272v62.528c2.816 0.768 5.632 1.536 8.448 2.432 0.896 0.256 1.728 0.512 2.624 0.832 1.92 0.576 3.904 1.216 5.824 1.792 1.024 0.32 1.984 0.64 3.072 0.96 1.728 0.64 3.52 1.216 5.312 1.792 1.024 0.448 2.048 0.768 3.072 1.216 1.792 0.64 3.648 1.344 5.504 1.984 0.896 0.32 1.856 0.704 2.752 1.024 2.176 0.896 4.288 1.664 6.464 2.624 0.576 0.256 1.152 0.384 1.664 0.64 2.688 1.152 5.376 2.304 8 3.52 0.704 0.256 1.344 0.576 1.984 0.896 1.92 0.896 3.968 1.792 5.952 2.688 0.96 0.512 1.856 0.96 2.752 1.344 1.664 0.832 3.456 1.664 5.12 2.496 1.024 0.512 1.92 1.024 2.944 1.408 1.6 0.896 3.328 1.728 4.928 2.624 0.96 0.512 1.856 1.024 2.816 1.472 1.792 0.96 3.584 1.984 5.44 3.008 0.704 0.448 1.408 0.832 2.112 1.216 2.496 1.408 5.056 2.944 7.552 4.416 0.256 0.192 0.64 0.384 0.96 0.64 2.112 1.344 4.288 2.624 6.4 3.968 0.832 0.512 1.664 1.088 2.496 1.536 1.536 1.088 3.2 2.112 4.8 3.2 0.96 0.64 1.728 1.216 2.688 1.792 1.536 1.088 3.072 2.112 4.544 3.2 0.96 0.64 1.728 1.28 2.688 1.856 1.536 1.152 3.136 2.24 4.672 3.392 0.768 0.64 1.536 1.216 2.304 1.728 1.984 1.472 4.032 3.008 5.952 4.544 0.32 0.192 0.704 0.512 1.024 0.768 2.24 1.728 4.48 3.584 6.72 5.376 0.64 0.576 1.344 1.216 1.92 1.664 1.6 1.344 3.136 2.624 4.672 4.032 0.832 0.704 1.536 1.344 2.368 2.048 1.408 1.28 2.816 2.496 4.224 3.712 0.832 0.832 1.536 1.472 2.432 2.24 1.344 1.28 2.752 2.56 4.096 3.84 0.768 0.768 1.472 1.408 2.24 2.176 1.536 1.472 3.072 3.008 4.544 4.416 0.576 0.576 1.152 1.152 1.664 1.664 2.048 2.048 4.032 4.032 6.080 6.208 0.448 0.448 0.896 1.024 1.344 1.408 1.536 1.6 3.136 3.328 4.608 4.928 0.704 0.832 1.344 1.536 2.048 2.368 1.344 1.344 2.56 2.752 3.84 4.16 0.704 0.896 1.408 1.728 2.176 2.56 1.216 1.344 2.368 2.816 3.584 4.224 0.704 0.896 1.408 1.664 2.112 2.56 1.28 1.536 2.496 3.072 3.712 4.608 0.64 0.768 1.28 1.472 1.792 2.176 1.792 2.304 3.584 4.544 5.312 6.912v0.064c1.792 2.304 3.52 4.672 5.184 7.040 0.576 0.832 1.152 1.536 1.664 2.304 1.152 1.664 2.24 3.264 3.392 4.928 0.64 0.896 1.28 1.792 1.856 2.752 1.024 1.536 2.048 3.136 3.072 4.672 0.64 0.96 1.28 1.856 1.792 2.88 1.088 1.536 2.048 3.2 3.136 4.8 0.576 0.96 1.088 1.792 1.536 2.688 1.28 1.92 2.368 3.968 3.584 5.952 0.32 0.576 0.704 1.152 1.024 1.728 1.472 2.496 2.944 5.056 4.288 7.68 0.448 0.704 0.768 1.344 1.216 2.112 1.024 1.856 2.048 3.84 3.072 5.76 0.448 0.896 1.024 1.856 1.472 2.816 0.832 1.728 1.664 3.456 2.56 5.12 0.512 1.088 0.96 2.048 1.408 3.136 0.896 1.664 1.664 3.392 2.496 5.184 0.448 0.96 0.896 1.984 1.344 3.008 0.896 1.856 1.664 3.84 2.56 5.696 0.32 0.896 0.768 1.664 1.088 2.496 1.216 2.752 2.304 5.504 3.52 8.32 0.128 0.384 0.256 0.832 0.448 1.216 0.96 2.368 1.856 4.8 2.816 7.168 0.32 0.96 0.704 1.92 1.088 2.88 0.704 1.92 1.344 3.84 2.048 5.696 0.32 1.088 0.768 2.112 1.088 3.264 0.64 1.792 1.28 3.648 1.792 5.44 0.448 1.152 0.768 2.176 1.152 3.264 0.64 1.92 1.216 3.904 1.728 5.76 0.32 1.088 0.64 1.984 0.96 3.072 0.704 2.496 1.408 4.928 2.112 7.552 0.128 0.384 0.256 0.768 0.384 1.28 0.832 2.88 1.472 5.888 2.24 8.832 0.256 0.896 0.448 1.792 0.64 2.688 0.576 2.112 1.024 4.224 1.472 6.336 0.256 1.088 0.448 2.24 0.704 3.328 0.384 1.92 0.896 3.904 1.216 5.824 0.256 1.152 0.448 2.304 0.704 3.456 0.384 1.92 0.768 3.904 1.088 5.888 0.256 1.088 0.448 2.24 0.64 3.328 0.384 2.304 0.704 4.48 1.088 6.784 0.128 0.832 0.256 1.664 0.384 2.496 0.448 3.072 0.896 6.144 1.216 9.28 0.128 0.64 0.192 1.344 0.256 1.984 0.32 2.432 0.576 4.864 0.832 7.296 0.128 1.152 0.192 2.24 0.32 3.328 0.192 2.048 0.384 4.096 0.576 6.208 0 1.216 0.128 2.432 0.192 3.584 0.192 1.984 0.32 4.032 0.448 6.080 0 1.216 0.064 2.304 0.128 3.52 0.064 2.176 0.192 4.288 0.256 6.528-0.064 0.704-0.064 1.728-0.064 2.816 0.128 3.2 0.192 6.4 0.192 9.6 0 220.928-170.56 399.936-380.992 399.936v0zM448.512 922.944h126.976c17.472 0 31.744-11.2 31.744-24.96 0-13.824-14.272-25.024-31.744-25.024h-126.976c-17.536 0-31.744 11.2-31.744 25.024s14.144 24.96 31.744 24.96v0zM512 323.008c-118.4 0-214.336 100.736-214.336 225.024 0 124.224 95.936 224.96 214.336 224.96s214.336-100.736 214.336-224.96c0-124.288-95.936-225.024-214.336-225.024v0zM512 648c-4.736 0-9.408-0.32-13.952-1.088 21.568-4.736 37.76-24.832 37.76-48.96 0-27.584-21.312-49.92-47.552-49.92-26.304 0-47.68 22.336-47.68 49.92 0 7.552 1.6 14.656 4.416 21.12-17.472-18.112-28.224-43.264-28.224-71.040 0-55.296 42.624-100.032 95.232-100.032s95.232 44.736 95.232 100.032c0 55.168-42.624 99.968-95.232 99.968v0z" />
<glyph unicode="&#xe91f;" glyph-name="call" data-tags="call" d="M444.8 362.88c-86.592 86.592-169.472 186.88-129.728 226.496 56.704 56.768 106.112 91.776 5.568 216.832-100.48 125.12-167.488 29.056-222.464-25.984-63.424-63.424-3.328-299.904 230.336-533.568 233.728-233.728 470.208-293.888 533.632-230.4 54.976 54.976 150.976 121.984 25.984 222.528-125.12 100.608-160.128 51.136-216.896-5.632-39.616-39.68-139.776 43.072-226.432 129.728v0 0 0 0zM595.136 601.472c-1.152-0.448-1.92-0.832-2.56-1.024 1.728 0.512 6.080 0.64 13.824-1.344 14.848-3.776 33.408-13.76 55.552-32.32 24.192-20.288 40.512-41.856 50.496-63.36 3.52-7.424 5.952-14.336 7.552-20.544 1.024-3.648 1.344-6.208 1.472-7.424 0 0.128 0 0.128 0 0.512 1.408-18.432 17.6-32.192 36.032-30.72 18.496 1.536 32.256 17.6 30.72 36.096-0.128 0.512-0.128 0.512-0.128 1.216-1.28 12.48-5.632 29.44-14.912 49.28-14.144 30.208-36.352 59.584-68.224 86.336-53.568 44.928-98.816 56.384-131.712 46.4-2.56-0.704-4.736-1.536-6.464-2.368-16.768-7.808-24-27.776-16.128-44.544 7.808-16.768 27.712-24 44.48-16.192v0zM558.4 776.704c-0.704-0.32-0.896-0.384-0.64-0.256 9.664 2.688 25.856 2.944 48.832-2.88 37.824-9.472 82.304-33.024 133.568-74.752 54.848-44.736 92.224-93.824 115.648-144.128 14.4-31.040 20.864-56.256 22.528-72.192 0.128-0.32 0.128-0.32 0.064 0 1.472-18.496 17.664-32.256 36.096-30.72 18.432 1.472 32.192 17.6 30.656 36.032 0 0.576 0 0.576-0.192 1.728-0.832 7.808-2.688 18.496-6.016 31.552-4.992 19.328-12.352 40.064-22.4 61.76-27.584 59.328-71.232 116.672-134.080 167.936-104.32 84.928-186.816 105.664-242.624 90.304-2.88-0.896-5.312-1.728-7.168-2.496-17.088-7.168-25.152-26.752-18.048-43.84 7.104-17.024 26.688-25.152 43.776-18.048v0z" />
<glyph unicode="&#xe920;" glyph-name="clohorn" data-tags="clohorn" d="M693.248 371.84l43.008-62.656c82.368 76.672 73.664 211.072-9.152 272.768-33.6 20.288-78.016-12.48-55.232-46.784 23.68-19.648 74.432-91.264 21.376-163.328zM774.912 252.736l49.216-71.744c198.784 139.264 173.312 458.752-50.944 560-12.224 10.88-72.128-29.696-36.8-65.472 168.576-142.784 183.808-277.504 38.528-422.784zM179.392 619.328h-58.88c-30.528 0-55.104-25.088-55.104-56.064v-224.576c0-31.104 24.64-56.256 55.104-56.256h49.216l318.528-267.968c0 0 73.536-49.408 73.536 46.528v126.336l-328.064 478.208-54.336-46.208zM561.728 834.56c0 96.64-73.536 46.72-73.536 46.72l-91.2-77.312 164.736-240.256v270.848zM226.688 948.864c-9.088 13.248-30.4 14.336-47.552 2.56l-16.832-11.456c-17.216-11.904-23.744-32-14.656-45.312l649.664-947.456c8.96-13.248 30.4-14.464 47.552-2.56l16.832 11.52c17.088 11.776 23.744 32 14.656 45.248l-649.664 947.456z" />
<glyph unicode="&#xe921;" glyph-name="clomc" data-tags="clomc" d="M769.088 262.016c40.192 54.144 60.224 116.16 60.224 185.984v70.528c0 9.536-3.52 17.792-10.496 24.832-6.912 6.976-15.168 10.496-24.768 10.496s-17.728-3.52-24.768-10.496c-7.040-6.976-10.496-15.232-10.496-24.832v-70.528c0-45.568-10.944-86.656-32.704-123.52l43.008-62.464zM503.296 271.936l-167.552 244.352v-68.288c0-48.448 17.28-89.92 51.84-124.48 32.448-32.448 70.976-49.6 115.712-51.584zM648.512 60.224h-101.184v72.704c15.68 1.728 30.848 4.48 45.632 8.256l-43.008 62.656c-12.352-1.792-24.96-2.624-37.952-2.624-67.904 0-126.080 24.192-174.336 72.512-48.32 48.256-72.384 106.368-72.384 174.272v70.528c0 9.536-3.584 17.792-10.496 24.832s-15.296 10.432-24.832 10.432c-9.472 0-17.728-3.52-24.768-10.496s-10.496-15.232-10.496-24.768v-70.528c0-81.152 27.136-151.68 81.28-211.776 54.208-60.032 121.152-94.464 200.832-103.296v-72.704h-141.056c-9.536 0-17.856-3.584-24.832-10.496-6.912-6.976-10.496-15.232-10.496-24.768 0-9.6 3.584-17.792 10.496-24.896 6.912-6.976 15.232-10.432 24.832-10.432h352.576c2.752 0 5.312 0.32 7.936 0.96l-47.744 69.632zM679.616 392.32c5.76 17.344 8.704 35.968 8.704 55.68v282.048c0 48.512-17.344 89.984-51.84 124.48-34.56 34.56-75.968 51.776-124.48 51.776s-89.984-17.28-124.416-51.776c-5.12-5.056-9.792-10.304-14.144-15.68l306.176-446.528zM877.568-0.128c9.088-13.12 2.432-33.472-14.72-45.248l-16.96-11.648c-17.28-11.904-38.592-10.752-47.68 2.624l-651.776 950.464c-9.088 13.184-2.432 33.6 14.912 45.376l16.768 11.52c17.216 11.904 38.592 10.688 47.616-2.496l651.84-950.592z" />
<glyph unicode="&#xe922;" glyph-name="data" data-tags="data" d="M128.064 896v0c0.128 0 0.32 0 0.512 0h-0.512zM192.064 149.76h192v128.128h-192v-128.128zM832.32 960h-64.064v-192.064h64.064v192.064zM256.064 960h-64v-192.064h64v192.064zM192.064 341.76h192v128.128h-192v-128.128zM895.872 896c0.128 0 0.256 0 0.512 0v0h-0.512zM704.256 341.76h128.064v128.128h-128.064v-128.128zM896.384 896v-96.064c0-53.056-43.008-96-96.064-96-53.12 0-96.064 43.008-96.064 96v96.064h-384.128v-96.064c0-53.056-43.008-96-96.064-96s-96 43.008-96 96v96.064c-70.784-0.256-128.064-57.728-128.064-128.576v-702.656c0-70.976 57.536-129.152 128.576-129.152h767.296c70.912 0 128.512 57.536 128.512 128.512v703.296c0 70.848-57.28 128.32-128 128.576v0zM959.616 62.656c0-35.328-28.736-64.064-64.064-64.064h-768.256c-35.392 0-64 28.736-64 64.064v469.44c0 35.328 28.608 64 64 64h768.256c35.328 0 64.064-28.672 64.064-64v-469.44zM448.192 341.76h192v128.128h-192v-128.128zM448.192 149.76h192v128.128h-192v-128.128zM704.256 149.76h128.064v128.128h-128.064v-128.128z" />
<glyph unicode="&#xe923;" glyph-name="delcom" data-tags="delcom" d="M428.736 113.152v-7.488h-182.784v-60.992h247.104c-24.32 19.84-46.016 42.944-64.32 68.48zM363.84 288.384h-250.944v486.4h753.536v-133.248c41.984-19.584 79.552-47.040 110.656-80.512v320h-974.912v-695.488h386.56c-13.184 32.192-21.76 66.688-24.896 102.848zM717.184 624.128c-168.192 0-304.576-136.32-304.576-304.512 0-168.256 136.384-304.64 304.576-304.64 168.32 0 304.64 136.384 304.64 304.64 0 168.192-136.32 304.512-304.64 304.512zM717.184 72.128c-136.704 0-247.424 110.72-247.424 247.488 0 136.64 110.72 247.424 247.424 247.424 136.768 0 247.488-110.784 247.488-247.424 0-136.768-110.72-247.488-247.488-247.488zM823.936 481.92l-107.392-105.92-105.92 107.456-56.704-55.872 105.984-107.456-107.456-105.856 55.936-56.64 107.392 105.856 105.856-107.392 56.704 55.872-105.92 107.392 107.392 105.856z" />
<glyph unicode="&#xe924;" glyph-name="email" data-tags="email" d="M955.264 789.504c-5.76-0.576-11.648-1.088-17.344-1.088-276.864-0.128-553.728-0.128-830.592 0-5.76 0-11.584 0.512-17.344 1.088-9.024-3.456-15.424-12.16-15.424-22.4v-2.496c12.352-8.448 25.984-15.424 36.992-25.408 112.704-102.528 225.024-205.44 337.344-308.416 54.272-49.664 92.992-49.792 147.392 0.128 111.488 102.080 222.976 204.288 334.848 305.984 11.904 10.752 26.368 18.56 39.488 27.712v2.496c0 10.24-6.4 19.008-15.36 22.4zM705.984 428.032c-15.872 13.888-27.392 13.76-41.856-1.6-14.272-15.36-30.72-28.608-46.528-42.56-61.504-54.144-129.28-53.888-190.848 0.768-20.544 18.24-40.96 36.608-64 57.344-63.232-52.352-124.992-103.872-187.2-154.752-33.344-27.264-67.328-53.504-101.056-80.256v-35.776c0-13.248 10.752-24 24.064-24h848.064c13.248 0 24 10.752 24 24v42.368c-55.104 43.776-110.528 87.36-165.376 131.52-33.472 27.136-66.88 54.592-99.264 82.944zM74.496 704.896v-438.144c82.752 68.992 165.504 138.048 251.84 209.984-86.72 78.592-169.28 153.344-251.84 228.16zM970.624 273.344v431.552c-82.24-74.624-164.608-149.248-249.728-226.432 86.080-70.656 168-137.984 249.728-205.12z" />
<glyph unicode="&#xe925;" glyph-name="flag" data-tags="flag" d="M168.896 874.048c26.816 0.256 48.576-21.824 48.32-49.6l-6.272-751.744c-0.256-27.712-22.080-50.368-49.088-50.688-26.752-0.256-48.512 22.080-48.256 49.792l6.336 751.744c0.192 27.776 22.144 50.304 48.96 50.496v0 0zM253.952 791.616c17.984 18.304 179.456 167.104 340.608-11.328 161.536-178.432 264.448-302.656 389.12-174.336 0 0-53.76-116.544-107.328-171.648-53.376-55.040-190.4-113.408-320.448-38.144-120.192 69.824-230.080 41.472-301.056-68.16 0 0-0.64 427.392-0.896 463.616v0 0z" />
<glyph unicode="&#xe926;" glyph-name="horn" data-tags="horn" d="M568.128 9.984c0-108.48-83.2-52.48-83.2-52.48l-360.32 303.232h-55.68c-34.496 0-62.4 28.352-62.4 63.488v254.208c0 35.072 27.968 63.488 62.4 63.488h66.56l349.44 296.448c0 0 83.264 56.576 83.264-52.928l-0.064-875.456zM755.392 281.856c104 84.608 97.024 245.312 0 317.696-38.080 22.848-88.384-14.144-62.464-52.992 29.504-24.768 97.152-121.728 0-211.712-18.944-24.832 17.408-75.84 62.464-52.992v0zM807.36 779.584c-13.888 12.288-81.472-33.536-41.536-74.112 206.272-174.72 209.728-338.944 0-518.976-31.168-29.76 10.368-86.4 41.536-73.984 286.080 132.352 273.984 543.552 0 667.072v0z" />
<glyph unicode="&#xe927;" glyph-name="invite" data-tags="invite" d="M590.4-40.448c-55.296-8.64-115.136-13.76-173.12-13.76-192.384 0-406.272 19.712-406.272 111.424v65.664c0 84.48 129.472 162.688 270.336 189.888 0 0 42.56 22.592 32.256 65.408-44.736 54.080-54.208 111.424-54.208 111.424-7.68 3.328-18.688 9.92-25.472 18.944-15.744 21.312-30.208 67.456-27.136 99.584 3.328 33.344 12.224 22.784 13.312 28.16-28.288 72.192-14.784 160.64 21.44 225.344 72.704 129.984 228.608 91.712 253.44 42.944 149.312 27.776 142.72-204.8 122.496-266.688 0 0 13.568-2.624 10.624-59.456-2.816-56.96-51.072-94.912-51.072-94.912-1.472-15.552-20.544-63.232-51.84-105.28-5.888-12.48-7.296-22.528-6.272-30.848-28.096-44.992-44.672-97.92-44.672-154.816 0.128-95.104 45.76-179.328 116.16-233.024v0zM1012.992 192.576c0-135.872-110.208-246.208-246.080-246.208-135.936 0-246.144 110.336-246.144 246.208 0 135.936 110.208 246.080 246.144 246.080 135.872 0 246.080-110.144 246.080-246.080v0zM929.408 192.448l-138.496 119.936c0 0-18.432 6.848-18.432-17.92v-46.656h-149.696c-10.176 0-18.432-8.32-18.432-18.496v-73.792c0-10.112 8.256-18.368 18.432-18.368h149.696v-46.208c0-23.616 18.432-18.432 18.432-18.432l138.496 119.936z" />
<glyph unicode="&#xe928;" glyph-name="keepmeet" data-tags="keepmeet" d="M880-45.184h-738.112c-1.664 0.576-3.328 1.408-5.056 1.728-42.688 7.616-100.096 56.768-114.56 97.6-2.432 6.976-3.712 14.464-5.632 21.696v738.176c0.64 1.664 1.472 3.392 1.792 5.056 8.832 46.848 65.536 104.896 111.36 117.248 4.032 1.024 8.064 1.92 12.224 2.944h657.152c-48.768 10.752 166.272-17.472 208.256-206.208v-657.216c-0.64-1.6-1.472-3.264-1.728-5.056-8.896-46.912-67.52-100.736-113.344-113.152-4.224-0.96-8.256-1.92-12.352-2.816v0 0zM510.976 81.152c105.792 0 217.664 0 323.392 0.064 26.88 0 41.152 14.144 41.152 40.768v253.248c0 26.624-14.4 41.152-40.768 41.152h-647.68c-26.048 0-40.64-14.528-40.64-40.384-0.064-116.288-0.064-137.792 0-254.144 0-4.224 0.128-8.576 1.024-12.544 4.352-18.432 18.176-28.032 40.128-28.032 105.856-0.192 217.792-0.128 323.392-0.128v0 0zM492.8 543.808h207.744c28.992 0 42.88 13.888 42.88 42.752v179.52c0 28.992-13.632 42.688-42.752 42.688h-446.336c-28.608 0-42.624-13.888-42.624-42.176-0.064-79.296-0.064-100.992 0-180.288 0-28.288 14.144-42.368 42.496-42.368 75.392-0.128 163.136-0.128 238.592-0.128v0 0zM544.384 745.344h129.856v-133.504h-129.856v133.504z" />
<glyph unicode="&#xe929;" glyph-name="mainroom" data-tags="mainroom" d="M26.752 873.024h970.496v-38.784h-970.496v38.784zM91.136 796.416v-625.28h841.728v625.28h-841.728zM792.96 503.296h-38.848v50.496l-126.080-128.96-52.544 54.080-133.824-134.528-67.904 68.416-97.856-98.112-26.88 27.008 125.056 125.056 68.352-68.288 134.464 134.528 54.272-51.264 95.104 98.112h-48.896v37.824h115.584v-114.368zM402.112 0.64l-27.072 27.136 150.72 150.784 149.12-149.248-27.008-26.944-122.112 122.176-123.648-123.904zM576.832 841.664h-99.136c-1.216 0-2.176 1.024-2.176 2.304v49.152c0 1.28 1.088 2.24 2.176 2.24h99.136c1.344 0 2.304-1.024 2.304-2.24v-49.088c0-1.344-1.024-2.368-2.304-2.368v0z" />
<glyph unicode="&#xe92a;" glyph-name="mc" data-tags="mc" d="M861.824 525.76v-77.696c0-89.472-29.76-167.36-89.472-233.536-59.84-66.176-133.568-104.192-221.44-113.856v-80.192h155.648c10.368 0 19.52-3.904 27.264-11.584 7.552-7.68 11.584-16.832 11.584-27.264 0-10.56-4.032-19.712-11.584-27.392-7.744-7.68-16.896-11.584-27.264-11.584h-388.928c-10.56 0-19.648 3.904-27.328 11.584-7.744 7.68-11.584 16.832-11.584 27.392 0 10.432 3.84 19.584 11.584 27.264 7.68 7.68 16.768 11.584 27.328 11.584h155.52v80.192c-87.872 9.664-161.664 47.68-221.376 113.856-59.776 66.176-89.6 144.064-89.6 233.536v77.696c0 10.56 3.904 19.712 11.584 27.392s16.832 11.52 27.328 11.52 19.648-3.84 27.328-11.52c7.68-7.68 11.584-16.832 11.584-27.392v-77.696c0-74.944 26.624-138.944 79.808-192.32 53.248-53.184 117.312-79.808 192.192-79.808 74.944 0 138.944 26.624 192.192 79.808 53.184 53.376 79.808 117.376 79.808 192.32v77.696c0 10.56 3.904 19.712 11.648 27.392 7.616 7.68 16.768 11.52 27.392 11.52 10.496 0 19.52-3.84 27.392-11.52 7.616-7.744 11.392-16.832 11.392-27.392v0zM706.496 758.976v-310.912c0-53.504-19.136-99.264-57.28-137.28-37.952-38.080-83.776-57.088-137.216-57.088s-99.2 19.008-137.28 57.152c-38.016 37.952-57.088 83.712-57.088 137.216v310.912c0 53.376 19.008 99.264 57.088 137.28 38.080 38.080 83.84 57.088 137.28 57.088s99.2-19.008 137.216-57.088c38.144-38.016 57.28-83.904 57.28-137.28v0z" />
<glyph unicode="&#xe92b;" glyph-name="mecont" data-tags="mecont" d="M10.688 503.744h445.568v445.568h-445.568v-445.568zM567.68 949.312v-445.568h445.632v445.568h-445.632zM10.688-53.312h445.568v445.632h-445.568v-445.632zM567.68-53.312h445.632v445.632h-445.632v-445.632z" />
<glyph unicode="&#xe92c;" glyph-name="meetset" data-tags="meetset" d="M945.344 508.8h-84.608c-8.256 48.704-26.112 93.952-51.904 133.888l60.672 60.8c28.16 28.224 28.16 73.856 0 102.144-28.224 28.16-73.92 28.16-102.208 0l-59.2-60.032c-39.936 26.688-86.592 45.184-134.016 53.952v81.792c0 39.936-31.872 72.256-71.744 72.256s-71.68-32.384-71.68-72.256v-85.312c-41.216-9.472-80.768-26.368-115.648-49.216l-58.496 58.752c-28.224 28.096-73.856 28.096-102.144 0-28.224-28.224-28.16-73.92 0-102.208l58.752-58.56c-26.56-40.384-44.8-86.144-53.12-136h-81.344c-40 0-72.256-31.232-72.256-71.168 0-39.872 32.384-70.976 72.256-70.976h86.080c9.92-41.28 26.752-80 49.664-114.368l-59.968-59.904c-28.16-28.096-28.16-73.728 0-102.016 28.224-28.224 73.984-28.224 102.272 0l60.416 60.736c34.304-22.272 72.32-38.656 113.472-48v-88.512c0-39.872 31.808-72.256 71.808-72.256 39.872 0 71.68 32.384 71.68 72.256v85.12c47.488 8.64 92.48 26.752 132.032 52.608l61.76-62.016c28.224-28.096 73.728-28.096 102.016 0 28.224 28.352 28.096 74.112-0.064 102.272l-62.080 61.76c22.336 33.856 38.656 70.976 48.384 112.256h89.28c40 0 72.256 31.104 72.256 70.976-0.064 40-32.32 71.232-72.32 71.232v0 0zM510.4 211.968c-131.264 0-237.696 106.496-237.696 237.632 0 131.264 106.304 237.696 237.696 237.696 131.136 0 237.632-106.432 237.632-237.696 0-131.072-106.56-237.632-237.632-237.632v0 0z" />
<glyph unicode="&#xe92d;" glyph-name="metmess" data-tags="metmess" d="M512.064 929.28c-275.904 0-499.52-193.472-499.52-432.256 0-139.392 76.16-263.36 194.688-342.464-12.352-54.72-17.536-187.84-17.536-187.84s32.384 110.016 267.904 100.608c11.776-1.152 23.744-1.792 35.84-2.176 1.216-0.192 2.304-0.256 3.52-0.384-0.064 0-0.128 0.128-0.128 0.192 5.056-0.192 10.112-0.192 15.296-0.192 275.776 0 499.392 193.408 499.392 432.192s-223.68 432.32-499.456 432.32v0zM277.184 418.816c-37.696 0-68.224 30.656-68.224 68.224 0 37.696 30.592 68.288 68.224 68.288s68.16-30.656 68.16-68.288c0-37.632-30.528-68.224-68.16-68.224v0zM511.232 418.816c-37.568 0-68.16 30.656-68.16 68.224 0 37.696 30.656 68.288 68.16 68.288 37.76 0 68.288-30.656 68.288-68.288 0.064-37.632-30.528-68.224-68.288-68.224v0zM745.344 418.816c-37.568 0-68.288 30.656-68.288 68.224 0 37.696 30.72 68.288 68.288 68.288 37.632 0 68.16-30.656 68.16-68.288 0.064-37.632-30.528-68.224-68.16-68.224v0z" />
<glyph unicode="&#xe92e;" glyph-name="mobile" data-tags="mobile" d="M761.92 800.768h-483.712v-624.896h483.776v624.896h-0.064zM570.432 851.136c0 5.504-4.544 10.048-10.048 10.048h-100.8c-5.504 0-10.112-4.544-10.112-10.048v-10.048c0-5.568 4.544-10.112 10.112-10.112h100.8c5.504 0 10.048 4.48 10.048 10.112v10.048zM520.064 54.976c22.144 0 40.32 18.112 40.32 40.256 0 22.272-18.176 40.384-40.32 40.384-22.208 0-40.32-18.112-40.32-40.384 0-22.080 18.112-40.256 40.32-40.256v0zM761.92-5.504h-483.712c-33.28 0-60.416 27.264-60.416 60.48v786.112c0 33.216 27.2 60.416 60.416 60.416h483.776c33.216 0 60.416-27.2 60.416-60.416v-786.048c0-33.28-27.264-60.544-60.48-60.544v0z" />
<glyph unicode="&#xe92f;" glyph-name="msg" data-tags="msg" d="M519.808 843.2h20.608c142.336 0 257.664-116.416 257.664-260.032v-144.064c0-100.608 144.384-261.504 144.384-261.504h-824.768c0 0 144.32 160.896 144.32 261.504v144.064c0.064 143.616 115.392 260.032 257.792 260.032v0zM633.216 136.128v-72.896c0-51.776-41.472-93.632-92.736-93.632h-20.672c-51.2 0-92.8 41.856-92.8 93.632v72.896h206.208zM530.112 926.4c34.176 0 61.888-27.968 61.888-62.4 0-34.496-27.712-62.4-61.888-62.4s-61.824 27.904-61.824 62.4c-0.064 34.432 27.648 62.4 61.824 62.4v0z" />
<glyph unicode="&#xe930;" glyph-name="name" data-tags="name" d="M301.76 592c0-21.184 16.256-38.272 36.224-38.272 0.256 0 0.384 0.064 0.64 0.064 7.488-101.184 87.104-202.24 184.32-202.24 97.344 0 176.96 101.056 184.32 202.24 0.256 0 0.512-0.064 0.768-0.064 20.032 0 36.032 17.152 36.032 38.272 0 15.744-8.768 29.12-21.376 35.008 7.36 22.784 11.392 47.040 11.392 72.32 0 123.648-94.4 223.872-211.072 223.872-116.544 0-211.008-100.224-211.008-223.872 0-25.344 4.032-49.536 11.264-72.32-12.608-5.952-21.504-19.264-21.504-35.008v0zM985.024 117.504c-86.272 83.776-191.36 142.848-304.64 171.008-2.752 1.6-6.016 2.496-9.28 2.496h-10.24c-3.392 0-6.528-0.896-9.344-2.368-34.112-18.368-81.152-28.864-128.576-28.864-47.488 0-94.4 10.496-128.576 28.864-2.816 1.472-6.016 2.368-9.28 2.368h-7.488c-1.536 0-3.008-0.384-4.544-0.64-116.096-27.52-224-87.232-312.128-172.864-3.904-3.648-6.016-8.64-6.016-14.016v-70.272c0-11.008 8.832-19.776 19.712-19.776h896.768c10.752 0 19.648 8.768 19.648 19.776v70.272c-0.064 5.376-2.304 10.368-6.016 14.016v0z" />
<glyph unicode="&#xe931;" glyph-name="nosl" data-tags="nosl" d="M547.584 210.624h-369.152v94.784h304.064l-65.152 95.168h-238.912v94.848h173.76l-65.088 95.104h-108.672v95.68h43.008l-116.288 169.536c-3.264 4.736-2.176 11.968 2.24 20.416h-71.104v-856.32h642.112l-130.816 190.784zM345.6 876.16l130.304-189.952h368.96v-95.68h-303.296l65.088-95.104h238.208v-94.848h-173.056l198.848-289.984 117.056 100.032v665.536zM871.232 7.552c8.96-12.928 2.496-32.96-14.592-44.544l-16.512-11.392c-16.96-11.648-37.952-10.496-46.784 2.56l-640.576 934.208c-8.96 12.992-2.432 33.024 14.528 44.672l16.512 11.264c16.96 11.648 37.952 10.56 46.848-2.432l640.576-934.336z" />
<glyph unicode="&#xe932;" glyph-name="operation" data-tags="operation" d="M496.576 656.832l-292.928-295.744c0 0 25.28-23.872 90.176-20.928 13.888-29.632 27.008-64.512 102.848-100.032-3.072-61.888 26.688-96.576 26.688-96.576l293.184 295.552c-3.648 40.256-33.856 90.496-81.6 137.728-65.408 64.832-120.192 77.44-138.368 80v0zM920.384 868.352c-86.144 70.528-145.472 49.792-175.744 20.608-10.496-10.112-43.776-36.928-68.096-56.448 27.392-1.728 82.368-13.632 142.848-73.344 60.032-59.52 71.488-110.4 72.256-138.816 20.352 26.432 52.48 67.84 57.472 72.832 33.024 33.728 57.28 104.704-28.736 175.168v0zM250.944 304.832c-58.048-0.192-71.616 12.8-71.616 12.8l-134.72-337.664 336.384 139.776c0 0-26.688 52.8-25.984 81.152-23.552 7.36-85.184 44.864-104.064 103.936v0zM638.656 800.064l-33.408-32.832c0 0 63.744-10.432 139.392-85.312 47.36-47.040 73.024-96.896 77.632-131.712l31.872 31.808c0 0 11.136 57.6-70.848 139.52-80.64 80.576-144.64 78.528-144.64 78.528v0zM781.888 517.568c0 0 10.624 55.104-67.776 133.568-77.12 77.12-138.496 75.136-138.496 75.136z" />
<glyph unicode="&#xe933;" glyph-name="phone" data-tags="phone" d="M1014.848 184.384l-4.096 5.888c2.112-2.112-10.88 13.12-10.88 13.12s-12.224 14.272-44.224 40.768c-26.368 21.888-59.264 46.848-84.864 63.744-31.232 20.608-52.864 33.856-51.648 33.024l-22.848 11.52c-9.984 4.864-26.88 5.504-38.656 1.344-10.752-3.648-20.096-12.032-24.512-19.648 1.856 3.392-7.488-6.848-26.368-40.512-8.128-14.72-17.472-35.52-28.992-56-15.616-27.648-55.744-54.976-95.872-32.256-50.944 28.736-116.416 68.608-183.616 132.352-77.888 73.92-120.448 130.56-144.64 184.512-8.832 19.648-4.8 60.672 27.328 76.416 31.808 15.488 50.048 19.392 70.144 31.488 18.176 11.264 14.592 7.488 35.776 21.44 0.896 0.576 7.68 6.528 8.64 7.168 0 0 1.6 1.6 2.88 2.88 13.312 12.608 16.64 29.312 9.984 45.824l-2.88 8.512c0 0-15.296 34.752-38.656 74.496-12.352 21.12-30.336 47.232-44.352 65.856-37.888 50.368-71.552 65.92-71.552 65.92s-9.472 4.928-14.336 7.104c-19.2 8.064-36.224 5.696-52.992-1.472-36.16-13.376-56.832-31.68-84.8-54.592-61.248-50.304-104.128-120.256-95.488-181.248 13.312-95.424 133.12-305.6 289.728-454.272 156.608-148.608 378.112-262.4 478.464-274.88 67.52-8.64 124.608 25.856 181.504 78.4 20.032 18.368 46.144 48.64 59.648 77.376 7.552 16.192 14.976 47.488 2.176 65.728v0 0z" />
<glyph unicode="&#xe934;" glyph-name="phoneoff" data-tags="phoneoff" d="M512 947.875c-276.1 0-499.875-223.787-499.875-499.813 0-276.125 223.787-499.937 499.875-499.937 276.125 0 499.875 223.813 499.875 499.938 0 276.025-223.75 499.812-499.875 499.812zM751.563 395.75c-94 11.6-87.438 46.75-86.875 94.125 0.563 33.1-75.813 41.438-148.163 42.413-72.288 0.938-148.725-5.313-149.313-38.438-0.6-47.35 5-82.662-89.35-91.687-94.35-8.875-81.288 59-80.662 104.912 0.713 52.912 125.537 124.937 320.625 122.225 195.225-2.6 317.975-77.938 317.288-130.85-0.612-45.987 10.638-114.2-83.55-102.7z" />
<glyph unicode="&#xe935;" glyph-name="phoneon" data-tags="phoneon" d="M154.368 90.368c197.504-197.504 517.76-197.504 715.264 0s197.504 517.76 0 715.264-517.696 197.504-715.264 0c-197.504-197.504-197.504-517.76 0-715.264zM377.92 656.832c59.008-75.52 29.248-96-5.12-129.408-24-23.424 24.64-83.968 75.648-136.448 51.008-52.352 110.272-102.656 134.272-79.296 34.368 33.408 55.616 62.656 129.536 1.6 73.856-61.12 15.936-100.288-17.344-132.736-38.4-37.376-179.2 0.448-316.928 141.952s-171.712 283.264-133.312 320.64c33.408 32.448 74.24 89.216 133.248 13.696z" />
<glyph unicode="&#xe936;" glyph-name="radio" data-tags="radio" d="M829.248 231.040c47.68 64.064 72.384 139.2 72.384 217.024 0 77.888-24.704 152.96-72.384 216.96-13.632 19.2-42.176 23.168-61.376 9.536-20.352-13.696-24.64-40.96-9.536-60.032 36.864-49.152 55.872-106.432 55.872-166.528s-19.008-117.44-55.872-166.656c-13.696-19.008-9.536-46.336 9.536-60.032 8.256-5.504 16.32-8.128 25.856-8.128 13.696-1.216 27.392 5.44 35.52 17.856v0zM226.112 448.064c0 60.032 19.072 117.376 54.528 166.528 13.76 19.008 9.6 46.272-9.536 59.968-20.416 13.632-47.744 9.6-61.44-9.536-47.68-64-72.256-139.072-72.256-216.96 0-77.824 24.576-154.24 72.256-217.024 8.192-12.416 21.888-17.728 35.52-17.728 9.536 0 17.728 2.624 25.92 8.128 20.416 13.696 24.576 41.024 9.472 60.032-35.392 49.152-54.464 106.496-54.464 166.592v0zM870.272 828.736c-16.32 17.664-43.712 19.136-62.784 4.224-17.728-16.512-20.352-43.84-4.096-61.632 80.64-89.92 125.632-204.672 125.632-323.328 0-118.72-44.992-233.408-125.632-323.456-16.256-17.664-13.632-45.12 4.096-61.44 8.192-6.784 19.136-10.944 28.736-10.944 12.224 0 24.512 5.44 32.704 14.976 95.488 106.496 147.392 241.472 147.392 380.8 1.28 139.392-50.624 275.776-146.048 380.8v0zM96.448 448.064c0 118.656 45.056 233.344 125.568 323.328 16.384 17.792 13.632 45.12-4.096 61.632-17.792 16.256-46.464 13.44-62.72-4.288-95.552-106.496-147.456-241.408-147.456-380.672 0-139.328 51.904-275.776 147.456-380.8 8.128-9.536 20.352-14.976 32.704-14.976 10.944 0 20.48 4.096 28.672 10.944 17.664 16.32 20.416 43.776 4.032 61.44-79.104 89.984-124.16 204.672-124.16 323.392v0zM512.704 630.912c-107.904 0-196.544-86.080-196.544-191.104 0-54.592 23.232-106.368 65.536-141.888 17.728-16.512 46.4-15.040 62.72 2.688 16.384 17.728 15.040 45.056-4.032 61.312-23.168 20.672-35.584 47.936-35.584 77.888 0 57.344 47.872 105.088 107.904 105.088 58.624 0 107.904-47.68 107.904-105.088 0-57.28-47.808-105.152-107.904-105.152h-8.256c-19.072 0-35.456-10.944-42.304-28.608-5.376-13.696-13.568-27.328-24.576-38.272-17.664-17.728-16.32-44.928 1.408-61.44 8.128-8.128 19.072-12.224 31.36-12.224 10.944 0 23.168 4.096 31.424 13.696 12.16 12.224 23.104 27.328 31.296 42.24 98.368 9.536 176.064 91.52 176.064 191.168 0.064 103.68-88.576 189.696-196.416 189.696v0z" />
<glyph unicode="&#xe937;" glyph-name="reload" data-tags="reload" d="M-2.816 834.112h1029.696v-128.704h-1029.696v128.704zM-2.816 190.592h514.816v-128.704h-514.816v128.704zM-2.816 512.384h514.816v-128.832h-514.816v128.832zM865.856 512.384h-128.64v-160.96h-160.832v-128.704h160.896v-160.896h128.64v160.896h161.024v128.704h-161.024v160.96z" />
<glyph unicode="&#xe938;" glyph-name="ricom" data-tags="ricom" d="M716.608 623.68c-167.744 0-303.744-136-303.744-303.744 0-167.808 136-303.744 303.744-303.744s303.744 135.936 303.744 303.744c0 167.744-136 303.744-303.744 303.744v0zM716.608 73.088c-136.256 0-246.784 110.528-246.784 246.848 0 136.256 110.528 246.784 246.784 246.784 136.384 0 246.848-110.592 246.848-246.784 0.064-136.384-110.464-246.848-246.848-246.848v0zM428.928 113.984v-7.424h-182.272v-60.8h246.464c-24.32 19.776-45.824 42.752-64.192 68.224v0zM364.288 288.896h-250.304v484.928h751.488v-132.864c41.728-19.456 79.232-46.912 110.4-80.32v319.168h-972.288v-693.632h385.408c-13.056 32.128-21.568 66.624-24.704 102.72v0zM851.776 458.112l-167.36-167.232-78.144 78.016-55.744-55.68 133.888-133.824 223.104 222.976-55.744 55.744z" />
<glyph unicode="&#xe939;" glyph-name="ripeop" data-tags="ripeop" d="M173.76 701.76c0-32.896 6.528-65.792 19.136-96.192 12.544-30.464 31.168-58.304 54.4-81.6 23.296-23.232 51.2-41.92 81.6-54.528 30.4-12.48 63.296-19.072 96.192-19.072 32.96 0 65.792 6.592 96.256 19.136 30.336 12.544 58.304 31.232 81.536 54.464s41.856 51.136 54.528 81.536c12.544 30.4 19.072 63.296 19.072 96.192s-6.528 65.792-19.072 96.192c-12.672 30.464-31.296 58.368-54.528 81.6s-51.2 41.856-81.536 54.464c-30.464 12.608-63.296 19.2-96.256 19.2-32.896 0-65.728-6.592-96.128-19.2-30.464-12.608-58.304-31.232-81.664-54.464-23.232-23.232-41.856-51.136-54.4-81.536-12.672-30.4-19.136-63.296-19.136-96.192v0zM511.872 441.344c-28.48 5.952-57.6 9.088-86.784 9.088-55.36 0-110.656-11.008-161.792-32.192-51.2-21.312-98.112-52.608-137.28-91.712-39.104-39.168-70.464-86.080-91.648-137.216s-32.192-106.496-32.192-161.856h492.032c-50.304 51.136-81.344 121.344-81.344 198.656 0 86.080 38.464 163.2 99.008 215.232v0zM738.56 509.376c-156.416 0-283.2-126.784-283.2-283.264 0-156.352 126.72-283.264 283.2-283.264s283.264 126.848 283.264 283.264c0 156.48-126.848 283.264-283.264 283.264v0zM684.544 50.432l-161.856 161.856 67.52 67.392 94.4-94.4 202.432 202.24 67.456-67.392z" />
<glyph unicode="&#xe93a;" glyph-name="roadoff" data-tags="roadoff" d="M104.256 236.224v-101.952c104.192 0 183.744 24.896 243.456 75.968 4.096 3.648 8.192 7.232 12.032 10.944-21.888 30.528-38.72 61.76-53.952 91.712-38.464-46.528-93.952-76.672-201.536-76.672zM223.68 630.4c-35.648 9.024-75.328 13.568-119.424 13.568v-101.952c172.352 0 211.2-77.504 260.224-175.68 27.328-54.656 55.552-111.104 107.968-156.032 20.544-17.6 43.712-32.064 69.184-43.52l-317.952 463.616zM715.84 796.8v-152.896c-89.6 0-161.024-18.432-217.28-56.192l57.728-84.16c36.096 24.128 85.504 38.464 159.488 38.464v-152.832l203.968 203.84-203.904 203.776zM715.84 270.912l117.824-171.712 86.080 86.144-203.904 203.84zM858.816 22.848c8.704-12.48 2.368-31.872-14.016-43.072l-16-11.072c-16.384-11.136-36.544-9.984-45.248 2.496l-618.368 901.952c-8.64 12.544-2.304 31.872 14.016 43.072l15.936 10.944c16.448 11.2 36.672 10.176 45.312-2.368l618.368-901.952z" />
<glyph unicode="&#xe93b;" glyph-name="roadon" data-tags="roadon" d="M1023.552 703.296l-255.744 255.872v-191.872c-130.624 0-230.592-31.168-305.408-95.36-5.248-4.48-10.304-9.088-15.104-13.76 27.52-38.144 48.704-77.376 67.712-115.008 48.32 58.432 118.016 96.192 252.8 96.192v-383.744c-216.256 0-264.896 97.28-326.464 220.48-34.304 68.608-69.76 139.392-135.488 195.84-74.816 64.128-174.656 95.36-305.408 95.36v-127.936c216.256 0 265.024-97.28 326.528-220.416 34.304-68.544 69.696-139.392 135.424-195.84 74.816-64.192 174.784-95.296 305.408-95.296v-191.808l255.744 255.744-255.744 255.808 255.744 255.744zM0.448 255.68v-127.872c130.752 0 230.592 31.104 305.408 95.296 5.248 4.544 10.304 9.152 15.168 13.824-27.456 38.144-48.64 77.312-67.712 115.008-48.256-58.432-117.952-96.256-252.864-96.256v0z" />
<glyph unicode="&#xe93c;" glyph-name="role" data-tags="role" d="M596.032 163.52l-51.392 30.784 53.184 89.664c-9.792 1.536-19.648 3.008-29.44 4.224-3.52 0.384-7.296 0.576-10.432 1.92-15.744 6.72-24.576 22.592-22.336 39.552 1.344 10.304 4.672 19.84 9.664 28.672 3.52 6.464 8.32 12.16 11.456 18.752 2.24 4.864 6.272 7.808 10.048 11.136 11.84 10.24 22.592 21.312 32.256 33.472 23.424 29.312 40.448 62.272 52.928 97.472 0.896 2.624 1.664 5.056 2.752 7.808 1.28-0.32 2.048-0.512 2.752-0.832 8.192-3.456 16-2.432 22.72 2.432 5.184 3.456 10.24 7.808 13.888 12.864 18.048 25.472 23.744 53.76 17.344 84.288-1.408 6.912-4.352 13.312-8.896 18.752-5.568 6.592-12.288 9.856-20.992 8.832-1.216-0.192-2.56 0-4.096 0v3.2c-0.192 18.88 0.32 38.016-0.576 57.088-1.088 25.664-5.376 50.816-13.184 75.456-9.408 29.824-23.872 56.896-46.272 79.424-24.384 24.832-54.4 39.936-87.936 48.768-31.872 8.512-64.448 10.752-97.472 9.728-24.96-0.896-49.408-4.544-73.216-12.16-60.864-19.264-103.936-58.112-128-117.44-11.776-28.992-17.344-59.328-19.584-90.368-1.536-20.8-1.088-41.6 0.128-62.464v-4.48c-0.704 0-0.896-0.192-1.024-0.192-0.512 0-1.216-0.128-1.728 0-10.752 2.112-18.88-2.24-24.448-10.944-3.264-5.184-6.208-11.264-7.424-17.344-6.272-29.632-0.32-57.28 16.64-82.24 2.624-3.84 6.080-7.296 9.728-10.368 11.456-9.536 21.184-10.112 34.368-1.92 0.832-2.432 1.536-4.16 2.048-5.888 3.136-7.296 5.888-14.4 9.024-21.504 18.56-40.96 43.392-77.504 78.72-106.176 0.896-0.704 2.112-1.344 2.112-2.048 0.128-4.032 3.264-6.080 5.184-9.088 5.568-8.512 10.624-17.344 14.080-26.88 2.624-7.232 4.48-14.848 4.16-22.656-0.512-17.344-14.080-32.448-30.528-34.368-39.552-4.48-78.4-12.096-116.736-23.040-33.152-9.408-65.28-21.248-95.424-38.208-17.664-10.048-34.368-21.632-48.576-36.224-11.456-11.84-20.992-24.96-26.88-40.384-1.088-2.816-1.728-6.144-1.728-9.28-0.128-13.696 0-27.392 0-41.088 0-1.92 0.192-3.84 0.32-6.272h522.56l-10.24 17.216 48.896 31.424c6.208 3.968 8.384 11.136 5.44 17.536-0.96 1.6-1.472 1.92-3.84 3.392v0zM965.632 115.328c-18.624 34.88-6.976 76.672 25.536 97.6l-37.184 62.72c-9.344-6.912-23.232-9.344-34.88-9.344-39.552 0-69.76 32.576-69.76 72.128h-72.064c0-11.648-2.304-25.6-9.344-34.88-18.56-34.88-62.72-44.16-97.6-25.6l-37.184-62.72c11.584-6.912 18.56-13.952 25.536-25.536 18.56-34.88 6.912-76.736-25.536-97.6l37.184-62.784c9.344 6.976 23.232 9.344 34.88 9.344 39.488 0 69.76-32.576 69.76-69.76h72.064c0 11.648 2.304 23.232 9.28 34.88 18.624 34.88 62.784 44.16 97.664 25.536l37.184 62.784c-9.28 2.304-18.624 11.584-25.536 23.232v0zM812.16 75.776c-53.952 0-92.416 57.92-65.664 109.056 10.624 20.352 30.592 35.072 53.248 38.72 47.616 7.744 86.784-30.080 86.784-73.408 0.064-39.488-32.512-74.368-74.368-74.368v0z" />
<glyph unicode="&#xe93d;" glyph-name="sector" data-tags="sector" d="M396.416 758.272c0-16.32 3.264-32.576 9.536-47.488 6.272-14.848 15.36-28.864 27.008-40.256 11.392-11.456 25.344-20.736 40.256-27.008 15.168-6.336 31.232-9.536 47.488-9.536 16.32 0 32.576 3.264 47.488 9.536s28.8 15.36 40.256 27.008c11.456 11.392 20.672 25.408 27.072 40.256 6.272 15.104 9.536 31.168 9.536 47.488 0 16.256-3.328 32.512-9.536 47.488-6.4 14.912-15.488 28.928-27.072 40.256-11.456 11.392-25.344 20.672-40.256 27.008-15.104 6.272-31.168 9.6-47.488 9.6-16.256 0-32.64-3.328-47.488-9.536-14.912-6.336-28.864-15.36-40.256-27.008-11.456-11.392-20.736-25.408-27.008-40.32-6.272-14.976-9.536-31.168-9.536-47.488v0 0zM210.112 417.024h620.864v-93.184h61.952v155.328h-341.504v93.056h-62.144v-93.12h-341.248v-155.264h62.080v93.184zM54.912 137.664c0-16.448 3.264-32.704 9.536-47.552 6.208-14.848 15.36-28.8 26.944-40.256 11.392-11.328 25.344-20.736 40.256-26.944 15.104-6.272 31.168-9.536 47.488-9.536s32.576 3.328 47.488 9.536c14.912 6.208 28.864 15.36 40.256 26.944 11.456 11.456 20.736 25.344 27.008 40.256 6.336 14.848 9.472 31.104 9.472 47.552 0 16.256-3.136 32.512-9.472 47.488-6.272 14.848-15.36 28.736-27.008 40.32-11.392 11.328-25.344 20.672-40.256 26.944-15.168 6.208-31.168 9.472-47.488 9.472-16.256 0-32.576-3.328-47.488-9.472-14.912-6.272-28.864-15.36-40.256-26.944s-20.736-25.408-26.944-40.32c-6.272-15.104-9.536-31.488-9.536-47.488v0 0zM737.664 137.664c0-16.448 3.328-32.704 9.472-47.552 6.272-14.848 15.36-28.8 26.944-40.256 11.456-11.328 25.408-20.736 40.32-26.944 14.848-6.272 31.232-9.536 47.488-9.536 16.32 0 32.576 3.328 47.552 9.536 15.104 6.208 28.672 15.36 40.256 26.944 11.328 11.456 20.736 25.344 27.008 40.256 6.208 14.848 9.472 31.104 9.472 47.552 0 16.256-3.328 32.512-9.472 47.488-6.272 14.848-15.424 28.736-27.008 40.32-11.584 11.328-25.344 20.672-40.256 26.944-14.976 6.208-31.232 9.472-47.552 9.472-16.256 0-32.64-3.328-47.488-9.472-14.848-6.272-28.864-15.36-40.32-26.944-11.328-11.584-20.672-25.408-26.944-40.32-6.144-15.104-9.472-31.488-9.472-47.488v0 0zM396.416 137.664c0-16.448 3.264-32.704 9.536-47.552s15.36-28.8 27.008-40.256c11.392-11.328 25.344-20.736 40.256-26.944 15.168-6.272 31.232-9.536 47.488-9.536 16.32 0 32.576 3.328 47.488 9.536s28.8 15.36 40.256 26.944c11.456 11.456 20.672 25.344 27.072 40.256 6.272 14.848 9.536 31.104 9.536 47.552 0 16.256-3.328 32.512-9.536 47.488-6.4 14.848-15.488 28.736-27.072 40.32-11.456 11.328-25.344 20.672-40.256 26.944-15.104 6.208-31.168 9.472-47.488 9.472-16.256 0-32.64-3.328-47.488-9.472-14.912-6.272-28.864-15.36-40.256-26.944s-20.736-25.408-27.008-40.32c-6.272-15.104-9.536-31.488-9.536-47.488v0 0z" />
<glyph unicode="&#xe93e;" glyph-name="sendmess" data-tags="sendmess" d="M518.784 409.088l216.32 216.32-188.16 189.12-371.264-371.264c-22.144-22.144-40.576-40.768-55.36-55.872s-24.128-24.64-28.16-28.672c-9.344-9.408-16.576-17.92-21.632-25.664-5.056-7.68-9.536-16.256-13.568-25.6-3.328-6.080-7.744-17.152-13.056-33.28-5.376-16.064-10.88-33.664-16.64-52.8-5.696-19.136-11.072-37.568-16.064-55.296s-8.192-31.36-9.536-40.768c-2.688-17.408-1.024-29.888 5.056-37.248s18.112-10.048 36.224-8.064c8.704 1.344 21.952 4.352 39.744 9.088s36.544 10.24 56.32 16.64 38.72 12.928 56.832 19.648c18.112 6.656 31.872 12.352 41.28 17.088 9.344 4.032 18.432 9.408 27.136 16.128s16.448 13.056 23.104 19.136c2.688 1.984 11.072 10.048 25.152 24.128 14.080 14.144 31.872 32.064 53.312 53.888 21.44 21.76 45.568 45.76 72.448 71.936l80.512 81.408zM825.6 714.944c4.736 4.672 10.24 9.984 16.64 16.064s13.632 13.056 21.632 21.12c7.36 8.064 12.736 16.448 16.128 25.216 3.392 8.704 4.992 17.408 4.992 26.112 0 8.768-0.832 17.152-2.496 25.216-1.664 8-3.904 15.040-6.528 21.12-9.408 20.096-22.656 39.36-39.744 57.792-17.152 18.496-32.768 31.36-46.784 38.72-6.656 3.392-14.592 6.4-23.68 9.088-9.024 2.688-18.368 4.16-28.096 4.544-9.728 0.32-19.648-1.088-29.696-4.032s-19.84-8.192-29.184-15.552c-7.36-6.080-16.64-14.272-27.648-24.704-11.136-10.368-20.608-19.264-28.736-26.624l188.16-188.16c4.672 4.032 9.664 8.704 15.040 14.080v0zM497.408 199.168l-95.872-118.848h622.016v118.848h-526.144z" />
<glyph unicode="&#xe93f;" glyph-name="session" data-tags="session" d="M34.688 863.104v-55.104h59.648v-523.904c0-65.344 49.024-110.272 119.296-110.272h178.944l-119.296-192.96 89.856 0.384 118.912 192.64h59.712l118.848-192.64 89.856-0.384-119.232 193.024h179.008c70.336 0 119.232 44.928 119.232 110.272v523.84h59.84v55.104h-954.624zM362.88 339.328c0-15.168-13.376-27.584-29.888-27.584-16.448 0-29.824 12.224-29.824 27.584v110.272c0 15.168 13.376 27.52 29.824 27.52 16.512 0 29.888-12.288 29.888-27.52v-110.272zM541.824 339.328c0-15.168-13.376-27.584-29.888-27.584-16.448 0-29.824 12.224-29.824 27.584v330.816c0 15.232 13.376 27.584 29.824 27.584 16.512 0 29.888-12.288 29.888-27.584v-330.816zM720.768 339.328c0-15.168-13.376-27.584-29.76-27.584-16.64 0-30.016 12.224-30.016 27.584v248.064c0 15.296 13.376 27.648 30.016 27.648 16.384 0 29.76-12.288 29.76-27.648v-248.064z" />
<glyph unicode="&#xe940;" glyph-name="slqx" data-tags="slqx" d="M616.448 526.72c41.728 17.664 86.016 26.688 131.776 26.688 4.48 0 9.088-0.128 13.44-0.128 21.504 54.208 27.008 118.144 16.256 180.352-25.024 142.72-159.68 238.208-301.248 213.056-141.376-25.088-260.736-134.976-235.648-277.76 5.312-30.848 20.224-78.912 37.888-113.664l-256.832-370.496c-9.408-13.568-14.912-38.080-11.968-54.72l11.2-63.424c-10.624 61.056 2.88-21.952 11.2-21.76l84.608-1.28c16.32 3.008 36.736 16.832 45.76 30.656l101.504 158.848 1.024 0.896 88.704-6.912 118.656 185.856c0.384 0 0.768-0.256 1.216-0.256 10.496 14.592 22.080 28.352 35.072 41.28 30.784 31.424 67.136 55.744 107.392 72.768v0zM77.632 145.664l-12.544-5.376 1.344 13.824 246.016 357.12 14.72-13.696-249.536-351.872zM451.52 802.752c38.848 56.064 115.328 69.952 170.816 30.528 55.552-39.488 69.12-116.8 30.272-172.736-38.912-56.064-78.592-16.576-134.144 22.72-55.36 39.488-105.792 63.36-66.944 119.488v0zM744.832 484.8c-148.992 0-269.76-120.768-269.76-269.824s120.768-269.76 269.76-269.76 269.824 120.704 269.824 269.76-120.832 269.824-269.824 269.824v0zM900.672 104.32c0-40.256-77.12-49.472-149.632-49.472-72.384 0-150.592 9.28-150.592 49.472v11.136c0 29.696 53.44 59.776 98.88 76.032 3.264 1.216 18.944 9.792 10.112 32.768-22.592 22.976-39.488 60.352-39.488 97.152 0 56.128 37.12 85.504 80.768 85.504 43.392 0 80.896-29.376 80.896-85.504 0-36.608-17.088-73.728-39.488-96.896h0.256c-8.704-26.048 5.056-32.384 7.168-33.024 47.808-15.68 101.44-45.504 101.44-76.032l-0.32-11.136z" />
<glyph unicode="&#xe941;" glyph-name="slsend" data-tags="slsend" d="M440 3.008l123.584 168.896-123.584 35.648v-204.544zM3.456 400.448l351.104-106.368 432.384 367.104-335.168-395.52 375.296-115.904 193.344 743.104-1016.96-492.416z" />
<glyph unicode="&#xe942;" glyph-name="state" data-tags="state" d="M793.728 34.24v-33.6h-537.088v33.6c0 0 15.104 33.472 33.6 33.472h470.016c18.496 0.064 33.472-14.976 33.472-33.472v0zM961.6 739.2v-469.952c0-55.616-45.12-100.736-100.672-100.736h-235.008v-33.6c0-16.128-15.040-33.472-33.536-33.472h-134.336c-18.496 0-33.536 15.104-33.536 33.472v33.6h-235.008c-55.616 0-100.736 45.12-100.736 100.736v469.952c0 55.616 45.12 100.736 100.736 100.736h671.424c55.552 0 100.672-45.12 100.672-100.736v0zM894.528 235.648c0 13.504-10.88 24.384-24.384 24.384-13.376 0-24.256-10.88-24.256-24.384 0-13.376 10.88-24.256 24.384-24.256 13.376 0 24.256 10.88 24.256 24.256v0zM894.528 739.2c0 18.496-15.040 33.6-33.536 33.6h-671.488c-18.496 0-33.6-15.104-33.6-33.6v-402.816c0-18.496 15.104-33.6 33.6-33.6h671.424c18.496 0 33.536 15.104 33.536 33.6v402.816h0.064zM570.944 497.28c0 0-17.856 4.032-9.408 21.824 10.496 14.080 16.896 30.016 17.344 35.2 0 0 16.128 12.672 17.088 31.68 0.96 18.944-3.52 19.904-3.52 19.904 6.72 20.672 8.96 98.432-40.96 89.152-8.32 16.256-60.48 29.056-84.736-14.336-12.096-21.696-16.576-51.2-7.104-75.328-0.384-1.856-3.456 1.728-4.48-9.408-1.088-10.752 3.712-26.176 9.024-33.28 2.304-3.008 5.952-5.248 8.512-6.4 0 0 3.2-19.136 18.112-37.184 3.456-14.336-10.752-21.824-10.752-21.824-47.040-9.088-90.368-35.2-90.368-63.488v-21.952c0-30.592 71.488-37.248 135.872-37.248 64.32 0 135.296 18.496 135.296 37.248v21.952c-0.128 28.224-42.88 54.336-89.92 63.488v0z" />
<glyph unicode="&#xe943;" glyph-name="time" data-tags="time" d="M511.36 960c-282.368 0-511.36-228.992-511.36-511.424s228.992-511.36 511.36-511.36c282.368 0 511.296 228.928 511.296 511.36s-228.928 511.424-511.296 511.424v0zM511.36 16.832c-238.528 0-431.808 193.344-431.808 431.808 0 238.528 193.344 431.808 431.808 431.808s431.744-193.344 431.744-431.808c0-238.528-193.216-431.808-431.744-431.808v0zM538.88 475.712v275.776h-80.32v-356.096h313.088v80.32h-232.768z" />
<glyph unicode="&#xe944;" glyph-name="update" data-tags="update" d="M130.816 460.8c0 0.448-0.128 0.832-0.128 1.152h0.064c7.424 204.416 175.040 368 381.248 368 83.456 0 160.192-27.456 222.912-72.96l-59.008-57.344 0.384-0.384c-6.208-7.296-10.112-16.704-10.112-27.008 0-23.232 18.816-42.048 42.048-42.048h196.224c23.232 0 42.048 18.816 42.048 42.048v196.224c0 23.232-18.816 42.048-42.048 42.048-17.664 0-32.832-11.008-38.976-26.496l-51.904-50.496c-83.136 65.408-187.52 105.024-301.568 105.024-256.512 0-465.984-197.184-487.616-448.064-1.728-4.608-2.944-9.344-2.944-14.528 0-1.792 0.576-3.392 1.024-5.12-0.576-3.2-1.024-6.592-1.024-10.048 0-30.144 24.448-54.656 54.656-54.656s54.72 24.512 54.72 54.656v0 0zM1002.56 453.824c0 2.112-0.384 3.968-0.64 6.016 0 0.704-0.064 1.408-0.128 2.176h-0.064c-4.032 26.24-26.432 46.528-53.824 46.528-27.52 0-49.984-20.288-53.888-46.528h-0.832c0.064-1.728 0.064-3.456 0.256-5.312-0.064-0.96-0.32-1.856-0.32-2.88 0-2.304 0.448-4.544 0.704-6.784-0.576-210.496-171.264-380.928-381.888-380.928-83.648 0-160.448 27.52-223.168 73.216l54.656 54.272c8.576 7.552 14.336 17.792 14.336 30.272 0 23.104-18.816 41.92-42.048 41.92h-34.944l-1.152 1.088-1.088-1.216h-158.976c-23.232 0-42.048-18.816-42.048-41.92v-196.288c0-23.104 18.816-41.92 42.048-41.92 3.072 0 5.76 1.024 8.64 1.536l0.128-1.536 2.112 2.176c10.88 2.88 19.712 9.92 25.024 19.392l55.872 55.36c83.008-65.216 186.816-105.024 300.672-105.024 270.912 0 490.56 219.648 490.56 490.496v0c0 1.344-0.192 2.688-0.192 3.904 0 0.704 0.192 1.344 0.192 1.984v0 0z" />
<glyph unicode="&#xe945;" glyph-name="ylloud" data-tags="ylloud" d="M971.264 451.776h-212.224v45.056h218.88l-6.656-45.056zM913.856 61.696h-154.88v44.928h161.472l-6.592-44.928zM353.792 92.608v-83.456h150.080c12.416 0 22.528-10.112 22.528-22.656 0-12.352-10.048-22.528-22.528-22.528h-345.152c-12.416 0-22.528 10.112-22.528 22.528 0 12.48 10.112 22.656 22.528 22.656h150.016v83.456c-146.88 11.52-262.592 134.336-262.592 284.096v90.112c0 8.32 6.72 14.912 14.976 14.912h15.040c8.256 0 14.976-6.656 14.976-14.912v-82.56c0-132.608 107.52-240.064 240.064-240.064s240.064 107.456 240.064 240.064v82.56c0 8.32 6.784 14.912 15.040 14.912h14.976c8.256 0 14.976-6.656 14.976-14.912v-90.048c0.128-149.824-115.52-272.64-262.464-284.16v0zM331.264 196.672c-103.616 0-187.584 84.032-187.584 187.584v360.128c0 103.616 84.032 187.584 187.584 187.584s187.584-83.968 187.584-187.584v-360.128c0-103.552-83.968-187.584-187.584-187.584v0zM899.52-35.968h-140.48v45.12h147.136l-6.656-45.12zM758.976 399.232h204.48l-6.656-44.928h-197.888v44.928h0.064zM758.976 301.824h190.272l-6.656-45.12h-183.616v45.12zM758.976 204.096h175.872l-6.656-44.928h-169.28v44.928h0.064z" />
<glyph unicode="&#xe946;" glyph-name="ztrig" data-tags="ztrig" d="M1011.625 448c0-275.875-223.75-499.625-499.625-499.625-275.913 0-499.6 223.75-499.6 499.625 0 275.975 223.688 499.6 499.6 499.6 275.875-0.012 499.625-223.637 499.625-499.6zM789.75 578.437l-47.375 47.313-289.875-289.875-169.525 169.563-47.313-47.313 216.838-216.875 337.25 337.188z" />
</font>
</defs>
</svg>
